<?xml version="1.0" encoding="utf-8"?>
<svg xmlns="http://www.w3.org/2000/svg" viewBox="0 0 26 26" fill="#ffffff"><path d="M 1 0 C 0.449219 0 0 0.449219 0 1 L 0 5 C 0 5.550781 0.449219 6 1 6 L 4.96875 6 C 5.519531 6 5.96875 5.550781 5.96875 5 L 5.96875 1 C 5.96875 0.449219 5.519531 0 4.96875 0 Z M 9 0 L 9 2 L 26 2 L 26 0 Z M 9 4 L 9 6 L 24 6 L 24 4 Z M 1 10 C 0.449219 10 0 10.449219 0 11 L 0 15 C 0 15.550781 0.449219 16 1 16 L 4.96875 16 C 5.519531 16 5.96875 15.550781 5.96875 15 L 5.96875 11 C 5.96875 10.449219 5.519531 10 4.96875 10 Z M 9 10 L 9 12 L 26 12 L 26 10 Z M 9 14 L 9 16 L 24 16 L 24 14 Z M 1 20 C 0.449219 20 0 20.449219 0 21 L 0 25 C 0 25.550781 0.449219 26 1 26 L 4.96875 26 C 5.519531 26 5.96875 25.550781 5.96875 25 L 5.96875 21 C 5.96875 20.449219 5.519531 20 4.96875 20 Z M 9 20 L 9 22 L 26 22 L 26 20 Z M 9 24 L 9 26 L 24 26 L 24 24 Z" fill="#ffffff"/></svg>
