<?xml version="1.0" encoding="UTF-8"?>
<svg id="Layer_2" data-name="Layer 2" xmlns="http://www.w3.org/2000/svg" viewBox="0 0 1132.32 589">
  <g id="Layer_1-2" data-name="Layer 1">
    <path fill="#ddd" d="M917.74,587.12c9.03-17.2,18.07-34.4,27.08-51.61,14.57-27.83,29.13-55.66,43.67-83.5,2.62-5.01,1.93-8.29-2.54-11.74-3.98-3.07-8.65-4.24-13.58-4.25-20.17-.05-40.33,.05-60.5-.1-2.89-.02-4.57,1.36-6.45,3.03-54.96,48.74-109.93,97.46-164.9,146.18-.95,.84-1.95,1.63-3.56,2.04,4.1-7.9,8.18-15.81,12.31-23.7,19.21-36.67,38.43-73.33,57.64-110.01,3.88-7.41,2.2-12.03-5.55-15.41-3.57-1.56-7.33-2.07-11.21-2.06-19.17,.03-38.33,.09-57.5-.06-3.41-.03-5.89,.96-8.44,3.22-54.89,48.81-109.86,97.53-164.82,146.27-.87,.77-1.78,1.5-3.32,1.9,2.04-3.99,4.04-7.99,6.12-11.96,21.51-41.1,43.04-82.18,64.55-123.28,2.77-5.3,1.82-8.94-3.21-12.33-3.85-2.6-8.18-3.72-12.75-3.73-20.17-.04-40.33,.03-60.5-.08-2.59-.01-4.35,.99-6.16,2.6-53.93,47.88-107.89,95.74-161.85,143.59-1.86,1.65-3.73,3.27-5.95,5.2-.52-2.47,.83-3.85,1.6-5.32,22.58-43.17,45.2-86.32,67.81-129.47,3.07-5.85,1.92-9.96-3.82-13.36-3.66-2.17-7.69-3.17-11.92-3.17-20.17-.03-40.33,.05-60.5-.09-2.84-.02-4.63,1.25-6.53,2.93-45.47,40.36-90.96,80.69-136.45,121.04-9.34,8.29-18.66,16.61-28.04,24.86-.91,.81-1.6,2.12-3.83,2.01,4.1-7.88,8.05-15.47,12.02-23.06,19.18-36.68,38.38-73.36,57.56-110.05,4.07-7.79,2.52-12.18-5.54-15.67-3.25-1.41-6.68-1.99-10.22-1.99-19.83,0-39.67,.11-59.5-.1-3.52-.04-5.53,1.79-7.73,3.75-51.09,45.31-102.17,90.64-153.26,135.97-4.47,3.97-8.96,7.92-13.52,11.96-1.12-1.62,.25-2.56,.77-3.54,22.79-43.62,45.62-87.22,68.44-130.82,3.66-6.99,2.22-11.42-4.92-14.83-3.82-1.82-7.9-2.42-12.14-2.41-21.16,.05-42.32,.02-65.06,.02,29.15-25.87,57.33-50.89,86.53-76.81-15.04,0-28.64,.01-42.23-.01-1.91,0-2.99,1.35-4.2,2.41-8.01,7.04-15.96,14.14-23.97,21.17-1.17,1.03-2.04,2.54-4.33,2.9,9.18-17.55,18.18-34.76,27.17-51.95,14.56-27.83,29.13-55.66,43.69-83.49,2.78-5.32,2.12-8.49-2.64-12.07-4.47-3.36-9.7-4.15-15.12-4.15-19.5,0-39,0-58.5,0-1.64,0-3.27,0-6.36,0,29.12-25.84,57.28-50.82,86.32-76.6H43.72c-.2-.4-.4-.8-.6-1.2C100.48,105.34,157.84,54.48,215.19,3.62c.26,.21,.51,.41,.77,.62-7.22,13.78-14.45,27.57-21.66,41.35-16.27,31.07-32.54,62.14-48.81,93.21-3.02,5.78-1.99,9.57,3.56,13.05,3.77,2.37,7.95,3.3,12.37,3.3,20.17,0,40.33-.05,60.5,.06,2.82,.02,4.58-1.3,6.5-3,55.19-48.98,110.42-97.92,165.64-146.86,.75-.66,1.54-1.26,2.89-1.58-3.39,6.57-6.75,13.15-10.18,19.7-19.97,38.15-39.96,76.29-59.94,114.43-3.79,7.24-2.22,11.72,5.27,15.12,3.4,1.54,6.97,2.14,10.69,2.14,19.83-.01,39.67-.08,59.5,.07,3.2,.02,5.24-1.41,7.41-3.34,54.81-48.65,109.66-97.27,164.5-145.89,.86-.76,1.75-1.49,3.31-1.87-1.24,2.53-2.42,5.09-3.72,7.59-21.84,41.68-43.7,83.34-65.56,125.02-4.76,9.08-2.43,14.32,7.62,17.37,3.09,.94,6.22,1.05,9.39,1.05,18.67,0,37.33-.1,56,.08,3.94,.04,6.83-1.07,9.79-3.71,53.88-47.94,107.86-95.78,161.82-143.63,1.48-1.31,3.03-2.56,4.95-4.17,.17,2.8-1.38,4.45-2.3,6.22-22.32,42.74-44.69,85.45-67.06,128.17-3.57,6.82-2.26,11.09,4.59,14.58,3.47,1.77,7.21,2.47,11.11,2.47,20-.01,40-.07,60,.07,3.01,.02,4.96-1.3,7-3.11,51.44-45.67,102.91-91.32,154.37-136.97,4.23-3.75,8.49-7.46,13.59-10.67-2.57,5-5.1,10.01-7.71,14.99-20.75,39.62-41.52,79.22-62.26,118.84-3.43,6.55-2.03,10.82,4.53,14.24,3.95,2.06,8.18,2.63,12.58,2.63,19.17-.04,38.33-.1,57.5,.06,3.43,.03,5.94-1.02,8.45-3.26,51.67-45.92,103.4-91.77,155.11-137.64,4.04-3.58,8.1-7.12,12.88-10.1-6.07,11.59-12.14,23.17-18.2,34.77-17.41,33.29-34.83,66.58-52.22,99.88-3.01,5.76-1.95,9.57,3.56,13,4.25,2.64,8.97,3.31,13.89,3.3,21.16-.05,42.31-.02,65.15-.02-29.17,25.89-57.3,50.86-85.46,75.85,1.03,1.66,2.51,.94,3.69,.95,11.5,.06,23-.07,34.5,.11,3.24,.05,5.61-.93,7.97-3.08,8.74-7.94,17.64-15.69,27.22-23.03-4.97,9.5-9.94,19-14.91,28.5-18.66,35.64-37.33,71.28-55.97,106.93-2.55,4.88-1.71,8.34,2.82,11.67,4.66,3.42,10.05,4.13,15.65,4.12,19.33-.03,38.66-.01,58-.01,1.63,0,3.25,0,6.44,0-29.21,25.93-57.36,50.91-86.28,76.58h44.14c.22,.39,.44,.78,.66,1.16-57.4,50.92-114.81,101.83-172.21,152.75-.28-.18-.55-.36-.83-.54Zm-373.31-230.07s0,.08,0,.11c7.5,0,14.99-.08,22.48,.04,2.57,.04,4.15-.53,5.48-3.08,18.16-34.94,36.44-69.81,54.74-104.68,2.23-4.25,1.25-7.67-2.22-10.62-4.44-3.77-9.78-4.8-15.39-4.82-14.16-.04-28.32,.1-42.47-.1-3.18-.04-4.63,1.16-6.02,3.83-17.77,34.2-35.66,68.34-53.53,102.49-3.43,6.56-2.18,10.76,4.39,14.21,3.13,1.64,6.48,2.6,10.05,2.6,7.49,0,14.99,0,22.48,0Zm-181.05,.11c7.49,0,14.99-.11,22.48,.06,2.81,.06,4.52-.72,5.88-3.35,18.07-34.79,36.26-69.51,54.38-104.28,2.44-4.67,1.6-8.1-2.6-11.23-4.45-3.32-9.62-4.36-15.07-4.36-13.99,0-27.98,.1-41.96-.07-3.05-.04-4.76,.81-6.2,3.58-17.76,34.2-35.66,68.32-53.49,102.49-3.77,7.22-2.12,11.63,5.41,15.06,3.57,1.62,7.33,2.1,11.19,2.11,6.66,0,13.32,0,19.98,0Zm-180.72-.05s0,.03,0,.05c7.66,0,15.33-.09,22.99,.05,2.48,.04,3.91-.76,5.07-3,18.1-34.78,36.3-69.52,54.43-104.29,2.7-5.17,1.77-8.65-2.98-11.95-4.41-3.07-9.44-3.97-14.7-3.97-13.66,0-27.32,.18-40.97-.11-3.93-.08-5.83,1.23-7.58,4.6-17.44,33.62-35.05,67.16-52.63,100.71-4.2,8.01-2.39,12.96,6.1,16.27,2.82,1.1,5.75,1.64,8.78,1.64,7.16,0,14.32,0,21.49,0Zm723.4,.05c7.66,0,15.32-.1,22.98,.06,2.52,.05,3.89-.85,5.03-3.04,18.2-34.91,36.44-69.8,54.74-104.66,2.26-4.3,1.25-7.69-2.17-10.62-4.26-3.64-9.43-4.84-14.87-4.87-14.49-.07-28.98,.05-43.47-.09-2.76-.03-4.13,.98-5.36,3.33-17.88,34.33-35.86,68.61-53.79,102.91-3.5,6.7-2.02,11.19,4.79,14.55,3.81,1.88,7.91,2.46,12.12,2.45,6.66-.02,13.32,0,19.99,0Zm-180.73,0c7.49,0,14.99-.08,22.48,.04,2.58,.04,4.13-.56,5.45-3.1,18.07-34.79,36.3-69.5,54.47-104.24,2.56-4.9,1.69-8.4-2.79-11.69-4.35-3.19-9.37-4.16-14.63-4.16-13.49-.02-26.99,.19-40.47-.12-4.42-.1-6.72,1.21-8.78,5.21-17.38,33.65-35.01,67.17-52.58,100.73-3.74,7.15-2.2,11.69,5.19,15.13,3.7,1.73,7.64,2.21,11.67,2.21,6.66-.01,13.32,0,19.99,0Zm-141.97-200c-20.33,0-39.96,.01-59.59,0-8.55,0-15.99-2.29-20.38-10.4-.32,.19-.53,.24-.6,.36-12.33,23.52-24.66,47.04-36.98,70.56-1.5,2.87-.96,5.47,1.01,7.86,2.42,2.94,5.62,4.57,9.26,5.52,6.4,1.68,12.93,.53,19.39,.97,3.22,.22,5.58-.84,7.99-3,24.7-22.06,49.52-43.98,74.27-65.98,1.81-1.61,4.04-2.87,5.63-5.89Zm-360.77,0c-21.33,0-40.97,.03-60.62-.02-8.62-.02-16.15-2.31-20.54-10.98-12.46,23.85-24.76,47.41-37.09,70.95-2.32,4.42-.57,7.76,2.84,10.45,3.92,3.1,8.6,4.31,13.54,4.4,4.5,.09,9-.11,13.49,.07,2.84,.11,4.94-.71,7.12-2.65,22.36-19.96,44.84-39.78,67.28-59.66,4.32-3.82,8.58-7.71,13.98-12.57Zm99.83-10.65c-.33,.37-.62,.58-.77,.86-12.16,23.26-24.29,46.54-36.49,69.77-1.85,3.51-1.09,6.35,1.43,9.06,2.48,2.66,5.58,4.14,9.06,4.93,7.42,1.69,14.94,.53,22.4,.83,1.75,.07,2.63-1.3,3.71-2.26,25.93-22.95,51.84-45.92,77.71-68.94,.98-.87,2.76-1.4,2.35-3.61-1.67,0-3.32,0-4.96,0-17.99,0-35.98,.04-53.97-.02-8.57-.03-16.12-2.23-20.48-10.63Zm361.72,.1c-.63,.73-.9,.94-1.04,1.22-12.08,23.11-24.14,46.23-36.22,69.35-2.17,4.15-.75,7.41,2.51,10.12,4.01,3.34,8.81,4.58,13.92,4.68,4.5,.09,9-.12,13.49,.07,2.87,.13,5-.78,7.14-2.69,25.98-23.15,52.04-46.21,78.05-69.32,.77-.69,2.18-1.14,1.5-2.87-19.6,0-39.26,.02-58.91,0-8.41-.01-15.79-2.18-20.44-10.54Zm180.5-.24c-12.62,24.22-24.97,47.87-37.26,71.55-1.58,3.05-.56,5.82,1.63,8.21,2.45,2.67,5.58,4.1,9.03,4.98,6.41,1.63,12.94,.44,19.39,.93,3.09,.23,5.3-.86,7.56-2.87,25.71-22.92,51.5-45.75,77.24-68.63,.88-.78,2.3-1.33,2.23-3.38h-4.99c-17.15,0-34.3-.09-51.44,.04-9.38,.07-17.93-1.37-23.38-10.83Zm180.91-.15c-12.45,23.88-24.56,47.17-36.75,70.42-2.24,4.28-1.24,7.68,2.18,10.64,2.17,1.88,4.72,3.07,7.52,3.75,7.57,1.84,15.26,.62,22.9,.94,1.53,.06,2.37-1.1,3.33-1.95,26.29-23.31,52.57-46.64,78.84-69.98,.79-.7,2.19-1.17,1.33-2.88-19.43,0-38.92,0-58.41,0-8.63,0-16.14-2.24-20.94-10.94Zm.05,201.94c-12.62,24.11-25.04,47.74-37.31,71.44-1.84,3.55-.5,6.84,2.4,9.41,2.69,2.38,5.93,3.63,9.41,4.33,6.11,1.23,12.3,.34,18.44,.68,2.65,.15,4.67-.6,6.7-2.41,25.85-23.04,51.79-45.99,77.67-69.01,.9-.8,2.4-1.29,2.23-3.45-1.59,0-3.2,0-4.81,0-17.83,0-35.65,.03-53.48-.01-8.73-.02-16.54-2.06-21.25-10.99Zm-595.79,97.03c12.71-24.42,25.11-48.25,37.5-72.09,1.66-3.2,.27-5.86-1.83-8.15-2.55-2.78-5.92-4.19-9.57-5.02-5.93-1.34-11.95-.4-17.91-.83-3.63-.26-6.27,1.02-8.92,3.39-23.33,20.82-46.75,41.54-70.14,62.3-3.14,2.79-6.24,5.62-10.2,9.21,2.97,0,4.6,0,6.24,0,18.14,0,36.28-.09,54.42,.04,8.36,.06,15.83,2.24,20.41,11.15Zm542.59-.25c12.62-24.17,25.02-47.82,37.31-71.53,1.77-3.42,.45-6.53-2.23-8.99-2.63-2.42-5.79-3.79-9.31-4.53-6.12-1.29-12.3-.37-18.43-.77-3.08-.2-5.3,.91-7.56,2.93-22.38,19.95-44.85,39.79-67.29,59.68-4.26,3.78-8.46,7.62-13.62,12.27,20.51,0,39.63,.04,58.76-.02,9.1-.03,17.24,1.81,22.38,10.96Zm-361.91-.06c.47-.68,.91-1.2,1.22-1.78,12-22.94,23.96-45.9,35.99-68.83,2.31-4.4,.69-7.66-2.65-10.51-2.46-2.09-5.39-3.19-8.53-3.86-6.11-1.31-12.28-.4-18.41-.78-3.06-.19-5.31,.86-7.58,2.89-20.1,17.95-40.29,35.8-60.45,53.68-6.53,5.79-13.04,11.6-19.76,17.58,2.06,1.16,3.74,.69,5.32,.7,18.31,.04,36.62-.07,54.93,.07,8.41,.06,15.78,2.48,19.94,10.84Zm181.05,.16c12.43-23.85,24.66-47.41,37.01-70.91,2.11-4.01,.9-7.07-1.99-9.78-2.6-2.43-5.82-3.74-9.31-4.49-5.78-1.24-11.62-.34-17.42-.74-3.57-.25-6.26,.89-8.95,3.29-22.33,19.95-44.78,39.77-67.18,59.63-4.14,3.67-8.24,7.4-13.31,11.95,2.94,0,4.56,0,6.17,0,17.97,0,35.95-.03,53.92,.01,8.77,.02,16.48,2.28,21.05,11.03Zm-542.77-.35c.63-.76,1.01-1.08,1.22-1.49,11.99-22.96,23.93-45.94,35.97-68.87,2.05-3.9,1.17-7.07-1.79-9.86-2.73-2.57-6.1-3.94-9.77-4.68-5.62-1.14-11.3-.24-16.93-.68-3.8-.3-6.59,1.04-9.37,3.53-18.1,16.2-36.33,32.27-54.5,48.4-8.28,7.35-16.53,14.72-25.79,22.96,2.87,0,4.46,0,6.06,0,18.32,0,36.63-.1,54.95,.05,8.18,.06,15.48,2.3,19.94,10.65Zm-180.92-.25c.64-.56,.96-.72,1.09-.98,12.09-23.11,24.17-46.24,36.25-69.35,1.89-3.62,1.09-6.73-1.74-9.48-2.72-2.65-6.05-4-9.71-4.77-5.78-1.23-11.63-.34-17.44-.74-3.38-.23-5.93,.8-8.49,3.09-25.84,23.06-51.8,45.99-77.7,68.98-.77,.69-2.1,1.14-1.74,2.81,19.83,0,39.65-.06,59.47,.03,8.23,.03,15.43,2.38,20,10.42Zm.37-201.43c12.71-24.36,25.03-47.9,37.27-71.5,1.66-3.19,.68-6.17-1.81-8.64-2.82-2.78-6.29-4.24-10.13-5.02-5.95-1.2-11.97-.41-17.94-.73-2.85-.16-5.03,.7-7.19,2.62-25.87,23.04-51.81,45.98-77.71,68.99-.88,.78-2.27,1.34-2.27,3.26,1.8,0,3.42,0,5.05,0,17.83,0,35.66-.05,53.49,.02,8.52,.03,16.16,2.1,21.25,10.99ZM20.89,375.75l.87,.59c53.18-47.17,106.36-94.34,160.48-142.35-13.64,0-25.79,.14-37.94-.08-3.61-.07-6.21,1.03-8.87,3.41-24.21,21.63-48.48,43.18-72.86,64.62-4.09,3.6-7.2,7.66-9.62,12.52-4.67,9.37-9.7,18.57-14.56,27.85-5.84,11.14-11.66,22.29-17.49,33.44Zm904.16,201.98c.28,.2,.57,.4,.85,.59,53.17-47.16,106.35-94.33,160.46-142.33-13.97,0-26.45,.08-38.93-.06-2.87-.03-4.95,.83-7.09,2.74-20.24,18.07-40.26,36.41-61.01,53.88-12.44,10.47-22.39,22.25-29.33,37.06-7.65,16.34-16.58,32.09-24.95,48.1Zm-181.02,.34c.27,.15,.54,.3,.82,.45,53.21-47.2,106.42-94.39,160.69-142.52-13.78,0-26.06,.08-38.33-.06-3.18-.04-5.59,.79-8.02,2.97-18.22,16.34-36.17,33.01-55.01,48.61-16.14,13.36-30.09,28.03-37.78,47.86-.12,.31-.33,.58-.48,.87-7.3,13.94-14.6,27.88-21.9,41.82Zm-200.16-142.07c-14.13,0-26.61,.08-39.08-.06-2.9-.03-4.96,.93-7.08,2.81-25.35,22.58-50.78,45.09-76.2,67.6-1.89,1.67-3.43,3.53-4.62,5.8-10.92,20.93-21.92,41.82-32.85,62.75-.43,.82-1.79,1.69-.3,3.1,53.02-47.02,106.01-94.02,160.11-142.01Zm-180.84,0c-13.94,0-26.36,.1-38.78-.07-3.09-.04-5.29,.94-7.54,2.95-25.22,22.5-50.51,44.93-75.82,67.33-2.16,1.92-3.85,4.06-5.18,6.61-9.54,18.28-19.2,36.51-28.71,54.8-1.72,3.3-3.95,6.41-5.14,11.33,53.93-47.83,106.99-94.89,161.17-142.95Zm361.67,0c-14.75,0-28.02,.04-41.29-.04-1.96-.01-3.01,1.2-4.22,2.28-25.65,22.74-51.28,45.5-76.95,68.21-2.04,1.81-3.6,3.88-4.84,6.25-10.79,20.61-21.61,41.22-32.37,61.84-.49,.94-1.56,1.87-.48,3.5,53.05-47.05,106.05-94.05,160.17-142.04ZM20.94,577.58l.79,.76c53.17-47.15,106.33-94.31,160.48-142.33-13.68,0-25.95,.12-38.22-.08-3.42-.05-5.89,.99-8.42,3.24-23.83,21.28-47.71,42.51-71.73,63.57-4.85,4.25-8.56,9.06-11.5,14.78-10.32,20.09-20.91,40.04-31.39,60.05Zm930.66-220.41c13.12,0,24.73-.2,36.33,.1,4.65,.12,8.11-1.2,11.57-4.3,24.29-21.77,48.72-43.39,73.16-64.98,2.92-2.58,5.22-5.5,7.01-8.94,6.97-13.43,14.05-26.8,21.06-40.2,4.1-7.85,8.16-15.72,12.23-23.58-.25-.17-.51-.34-.76-.51-53.12,47.11-106.25,94.22-160.6,142.41ZM389.79,13.13c-.22-.19-.45-.38-.67-.57-53.22,47.19-106.44,94.38-160.46,142.28,2.39,.15,3.66,.3,4.92,.31,11.16,.02,22.31-.09,33.47,.07,3.07,.04,5.29-.92,7.55-2.93,25.1-22.36,50.28-44.63,75.41-66.95,1.6-1.42,3.35-2.92,4.33-4.76,11.9-22.44,23.66-44.96,35.46-67.45Zm361.3,.7c-.26-.28-.52-.56-.78-.84-53.05,47.05-106.11,94.09-160.29,142.14,14.89,0,28.15,0,41.42,0,1.87,0,2.99-1.26,4.23-2.36,21.04-18.66,41.73-37.74,63.27-55.81,11.89-9.97,21.19-21.35,27.21-35.53,.52-1.22,1.23-2.36,1.84-3.54,7.7-14.69,15.4-29.38,23.1-44.07ZM47.46,155.16c13.73,0,25.86-.14,37.99,.08,3.63,.07,6.25-1.07,8.9-3.43,24.48-21.85,49.02-43.63,73.63-65.33,3.32-2.93,5.89-6.23,7.9-10.14,5.01-9.77,10.15-19.47,15.24-29.2,5.9-11.27,11.8-22.53,17.69-33.8-.25-.2-.51-.39-.76-.59C154.92,59.88,101.8,106.98,47.46,155.16ZM570.24,13.82c-.31-.23-.62-.47-.92-.7-53.04,47.04-106.09,94.08-160.16,142.03,14.71,0,27.85-.04,40.98,.03,2.32,.01,3.59-1.47,5.06-2.78,21.93-19.43,43.67-39.07,65.87-58.18,9.11-7.84,16.78-16.35,21.55-27.51,2.73-6.4,6.41-12.4,9.65-18.59,5.99-11.43,11.98-22.87,17.97-34.3Zm381.39,141.34c13.74,0,25.99-.11,38.24,.07,3.42,.05,5.94-1,8.46-3.25,25.08-22.38,50.24-44.68,75.41-66.96,2.29-2.03,3.99-4.38,5.4-7.07,10.48-20.03,21.02-40.03,31.52-60.05,.77-1.46,1.4-2.99,2.1-4.49-.26-.15-.53-.29-.79-.44-53.03,47.02-106.05,94.04-160.35,142.18Zm-179.6-1.09c.18,.36,.36,.72,.55,1.08,12.98,0,25.97-.05,38.95,.05,2.51,.02,3.94-1.47,5.54-2.89,16.95-15.02,33.91-30.04,50.84-45.09,15.36-13.64,32.37-25.85,39.53-46.52,1.19-3.42,3.33-6.5,5.03-9.75,6.53-12.47,13.05-24.93,19.57-37.4-.27-.22-.54-.44-.81-.65-53.07,47.06-106.14,94.11-159.21,141.17Zm-268.56,194.48c-.46,.38-.81,.53-.95,.8-12.24,23.41-24.45,46.83-36.69,70.23-1.75,3.35-.67,6.14,1.63,8.64,2.45,2.66,5.63,4.03,9.1,4.87,6.58,1.61,13.28,.53,19.91,.94,2.53,.15,4.41-.7,6.26-2.35,15.14-13.54,30.2-27.18,45.6-40.43,6.06-5.21,10.99-10.98,14.22-18.28,1.41-3.19,2.97-6.35,4.83-9.29,2.25-3.57,1.76-4.64-2.65-4.59-14.49,.16-28.99,.17-43.48-.14-7.51-.16-14-2.85-17.77-10.4Zm-114.89,11.44c-2.2-1.26-3.88-.8-5.47-.8-13.32-.05-26.63,.01-39.95-.04-8.67-.04-16.32-2.24-20.91-11.04-12.58,24.13-24.92,47.82-37.31,71.49-1.77,3.39-.61,6.11,1.68,8.6,2.44,2.66,5.61,4.05,9.07,4.92,6.41,1.6,12.93,.53,19.39,.93,2.86,.18,4.98-.74,7.13-2.67,15.72-14.11,31.28-28.43,47.47-41.99,9.59-8.03,12.48-19.6,18.89-29.38Zm-247.12-11.95c-12.62,24.16-24.98,47.85-37.34,71.53-1.99,3.8-.35,6.78,2.34,9.33,2.46,2.34,5.54,3.57,8.86,4.31,6.43,1.44,12.94,.43,19.41,.82,2.5,.15,4.37-.64,6.24-2.31,13.88-12.43,27.61-25.04,41.89-37.01,8.86-7.43,16.01-15.8,20.42-26.5,1.21-2.94,3.49-5.44,3.89-9.13-15.82,0-31.3,.16-46.77-.07-7.84-.12-14.74-2.64-18.93-10.98Zm542.46,.07c-12.8,24.54-25.19,48.22-37.47,71.94-1.58,3.05-.34,5.85,1.88,8.19,3,3.17,6.88,4.63,11.06,5.3,5.79,.93,11.65,.15,17.46,.5,2.92,.18,5-.88,7.11-2.76,17.01-15.2,34.09-30.33,51.18-45.45,1.78-1.57,3.21-3.35,4.29-5.45,2.98-5.76,5.84-11.6,9.06-17.22,1.86-3.25,1.45-4.11-2.38-4.07-13.83,.16-27.66,.13-41.49,.03-8.36-.06-15.84-2.14-20.69-11.02Zm180.82,.05c-12.64,24.2-24.91,47.7-37.17,71.2-1.8,3.46-.8,6.45,1.75,9.06,2.52,2.57,5.68,3.94,9.16,4.75,6.42,1.5,12.94,.45,19.39,.86,2.72,.17,4.66-.8,6.65-2.57,16.37-14.62,32.76-29.23,49.29-43.67,8.75-7.64,11.33-18.72,17.71-28.64-2.99,0-4.79,0-6.6,0-13.31,0-26.62,.06-39.93-.04-8.23-.06-15.42-2.41-20.25-10.96Zm-234.26-105.35c.39-.52,.76-.88,.98-1.31,12.08-23.08,24.14-46.18,36.25-69.25,2.31-4.41,.68-7.67-2.71-10.47-2.48-2.04-5.4-3.17-8.55-3.85-5.94-1.29-11.95-.42-17.91-.82-3.46-.23-5.94,1.06-8.44,3.3-16.47,14.76-33.14,29.31-49.56,44.12-8.09,7.3-10.54,17.98-16.6,27.47,16.18,0,31.14-.11,46.11,.04,8.52,.09,16.14,2.33,20.43,10.77Zm181.01,.26c12.6-24.06,24.9-47.58,37.22-71.09,1.94-3.71,.74-6.73-2-9.4-2.71-2.64-6.05-3.96-9.72-4.71-5.78-1.18-11.62-.4-17.42-.76-3.4-.21-5.95,.88-8.49,3.16-15.7,14.12-31.31,28.37-47.43,42-9.39,7.94-12.15,19.4-18.88,29.72,2.73,0,4.36,0,5.99,0,13.31,0,26.62-.11,39.93,.04,8.51,.1,16.19,2.21,20.79,11.04Zm-428.1-11.08c15.9,0,30.87-.12,45.84,.05,8.45,.09,16.07,2.26,20.6,11.15,12.65-24.32,25.07-48.16,37.46-72.03,1.76-3.4,.19-6.2-2.15-8.52-2.66-2.64-6.05-3.98-9.73-4.75-5.45-1.14-10.98-.35-16.43-.81-4.38-.37-7.51,1.26-10.66,4.11-13.58,12.3-26.8,25.07-41.19,36.36-11.5,9.02-16.87,21.41-23.74,34.44Zm608.98,11.05c12.42-23.79,24.52-46.89,36.55-70.04,2.57-4.94,1.62-8.42-2.82-11.65-2.6-1.9-5.54-2.94-8.7-3.55-5.63-1.09-11.31-.34-16.95-.69-3.39-.21-5.93,.83-8.49,3.13-15.22,13.71-30.24,27.67-46.04,40.68-10.08,8.3-13.49,20.12-20.2,31.07,15.88,0,30.84-.07,45.8,.03,8.56,.06,16.13,2.36,20.84,11.02Zm-723.36,.03c.43-.83,.66-1.26,.89-1.7,12.11-23.25,24.22-46.51,36.35-69.76,1.62-3.11,.83-5.78-1.31-8.22-2.75-3.14-6.35-4.67-10.37-5.51-5.44-1.14-10.96-.39-16.42-.79-4.12-.3-7.21,.98-10.28,3.74-15.44,13.93-30.82,27.93-46.68,41.36-9.36,7.93-12.19,19.39-18.98,29.79,2.73,0,4.34,0,5.94,0,13.31,0,26.63-.1,39.94,.04,8.46,.09,16.14,2.12,20.91,11.04Zm455.71-9.07c-14.78,0-28.04,.03-41.31-.04-1.95,0-3,1.23-4.22,2.3-24.14,21.42-48.19,42.95-72.48,64.21-5.12,4.48-9.06,9.46-12.1,15.52-6.25,12.48-12.97,24.72-19.36,37.13-.54,1.05-3.04,3.54-.07,3.74,4.71,.32,9.54,1.52,14.06-2.56,28.07-25.26,56.42-50.21,84.68-75.26,16.55-14.68,33.09-29.36,50.79-45.06Zm29.97,123.28c5.09-.97,10.21,1.6,14.86-2.53,44.15-39.29,88.41-78.47,132.62-117.7,.81-.72,1.95-1.24,2.1-3.04-13.52,0-26.94,.01-40.36-.01-1.73,0-2.65,1.23-3.74,2.2-25.56,22.63-51.1,45.27-76.67,67.88-2.15,1.9-3.92,4.03-5.25,6.58-6.68,12.83-13.43,25.63-20.08,38.49-1.27,2.46-3.12,4.7-3.48,8.13Zm-210.69-123.29c-13.96,0-26.37,.09-38.78-.06-3.04-.04-5.26,.83-7.55,2.87-25.2,22.5-50.52,44.88-75.77,67.32-1.48,1.31-3.1,2.68-4.01,4.38-8.14,15.25-16.14,30.58-24.17,45.89-.5,.95-1.49,2.67,.41,2.58,4.46-.23,9.15,1.78,13.31-1.91,43.66-38.8,87.39-77.53,131.1-116.27,1.44-1.27,2.89-2.54,5.45-4.79Zm542.35,0c-13.83,0-26.16,.08-38.48-.06-3.01-.03-5.27,.74-7.57,2.8-22.85,20.42-45.68,40.87-68.82,60.96-7.05,6.12-12.73,12.83-16.81,21.27-6.13,12.67-12.96,25.01-19.63,37.74,7.49,1.16,13.19,.22,19.01-5.03,33.97-30.71,68.41-60.9,102.67-91.29,9.55-8.47,19.07-16.98,29.63-26.38ZM211.64,356.75c7.61,1.07,13.29,.18,18.97-4.94,35.61-32.12,71.62-63.79,107.5-95.62,8.02-7.12,16-14.27,24.89-22.19-13.57,0-25.86,.12-38.15-.08-3.43-.05-5.93,1.02-8.44,3.26-23.48,20.96-47.08,41.79-70.58,62.72-2.97,2.64-6.64,4.77-8.55,8.32-8.56,15.94-16.92,31.99-25.63,48.52Zm530.15-123.35c-5.83,1.74-10.81-1.36-15.27,2.61-44.16,39.23-88.37,78.4-132.53,117.63-.99,.88-2.69,1.41-2.4,3.53,13.03,0,26.01-.04,38.98,.04,2.26,.01,3.68-1.19,5.19-2.53,24.63-21.88,49.24-43.79,73.96-65.56,3.69-3.25,6.7-6.8,8.88-11.21,3.47-7,7.21-13.86,10.83-20.78,3.9-7.46,7.78-14.93,12.36-23.72Zm-543.1,1.1c-7.79-1.5-13.51,.13-19.37,5.43-33.58,30.36-67.61,60.21-101.48,90.25-9.77,8.67-19.52,17.36-30.31,26.94,14.77,0,28.17,0,41.58,0,1.89,0,2.92-1.45,4.14-2.53,19.19-16.99,37.87-34.61,57.71-50.8,15.7-12.82,27.83-27.73,35.89-46.26,3.42-7.85,7.82-15.28,11.84-23.03Zm362.27-1.07c-6.04,1.69-11.05-1.3-15.73,2.87-43.74,38.95-87.6,77.76-131.4,116.64-1.24,1.1-2.95,1.97-3.41,4.22,13.33,0,26.31-.05,39.29,.05,2.28,.02,3.68-1.18,5.18-2.5,21.02-18.67,41.76-37.69,63.2-55.87,11.25-9.54,20.37-20.14,26.44-33.67,4.65-10.39,10.45-20.27,16.44-31.73Zm-332.69,123.74c13.8,0,26.06-.08,38.32,.06,3.19,.04,5.61-.83,8.03-3,19.85-17.75,39.37-35.91,59.89-52.85,13.81-11.4,24.35-24.62,31.59-40.88,3.95-8.87,8.9-17.31,13.42-26-7.86-1.52-13.61,.17-19.44,5.5-24.43,22.35-49.44,44.07-74.22,66.04-18.8,16.66-37.58,33.35-57.59,51.12Zm693.8-122.69c-7.5-1.41-13.23-.15-18.95,5.01-32.89,29.67-66.16,58.91-99.29,88.31-10.66,9.46-21.3,18.95-32.07,28.53,1.69,1.33,3.23,.8,4.63,.81,11,.05,22-.09,32.99,.1,3.28,.06,5.61-1.07,7.98-3.19,20-17.86,39.9-35.84,60.22-53.32,11.45-9.85,21.89-20.08,28.04-34.35,4.7-10.91,10.86-21.19,16.45-31.9Zm-238.05,199.51c14.92,0,28.33,0,41.75,0,1.91,0,2.93-1.42,4.14-2.5,20.05-17.75,40.09-35.52,60.12-53.29,6.77-6.01,13.51-12.04,21.33-19.02-14.73,0-27.97,.01-41.21-.01-1.88,0-3.03,1.19-4.27,2.28-6.74,5.94-13.49,11.87-20.21,17.83-20.16,17.87-40.3,35.76-61.66,54.71Zm-54.67-275.65c-.11-.39-.22-.78-.33-1.17-12.08,0-24.17,.11-36.25-.07-3.56-.05-6.22,.89-8.92,3.31-19.32,17.31-38.81,34.45-58.23,51.66-7.13,6.32-14.21,12.69-22.3,19.93,14.01,0,26.61-.07,39.2,.05,2.68,.03,4.64-.78,6.63-2.56,13.13-11.76,26.38-23.4,39.57-35.09,13.55-12.01,27.08-24.04,40.62-36.06Zm361.7,0c-.09-.39-.18-.78-.27-1.16-11.76,0-23.52,.21-35.27-.11-4.53-.12-7.79,1.31-11.09,4.27-21.2,19-42.56,37.83-63.85,56.73-4.91,4.36-9.78,8.76-15.56,13.94,13.87,0,26.48-.09,39.09,.06,2.91,.03,4.99-.92,7.09-2.81,10.89-9.8,21.88-19.48,32.84-29.21,15.67-13.9,31.35-27.81,47.02-41.71ZM503.2,434c14.77,0,27.92-.05,41.06,.05,2.16,.02,3.34-1.23,4.68-2.41,22.69-20.1,45.37-40.21,68.04-60.32,4.16-3.69,8.29-7.43,13.54-12.15-13.8,0-26.05,.09-38.3-.06-3.2-.04-5.61,.83-8.03,3-16,14.34-32.14,28.52-48.22,42.77-10.56,9.36-21.1,18.74-32.78,29.11ZM810.13,157.17c-13.37,0-26.34,.04-39.31-.04-2.26-.01-3.68,1.19-5.19,2.53-25.88,22.96-51.78,45.9-77.63,68.89-.97,.86-2.72,1.37-2.34,3.44,13.05,0,26.02-.03,39,.04,2.02,.01,3.39-.83,4.82-2.1,25.99-23.08,52.03-46.12,78.03-69.19,.94-.84,2.23-1.46,2.61-3.56ZM141.49,433.99c14.76,0,28.04-.03,41.32,.03,1.93,0,3.03-1.17,4.25-2.25,26.17-23.2,52.33-46.41,78.47-69.63,.77-.68,2.16-1.15,1.47-2.97-12.07,0-24.21,.1-36.35-.07-3.41-.05-5.97,.92-8.48,3.23-7.72,7.1-15.65,13.97-23.5,20.93-18.68,16.57-37.36,33.14-57.19,50.72Zm850.78-74.83c-13.13,0-24.73,.24-36.33-.11-4.89-.15-8.42,1.43-11.97,4.62-17.7,15.92-35.6,31.63-53.41,47.44-8.27,7.33-16.49,14.71-25.64,22.88,13.42,0,25.54-.13,37.65,.08,3.75,.06,6.57-.95,9.36-3.5,10.83-9.86,21.88-19.49,32.84-29.22,15.42-13.69,30.84-27.39,47.5-42.19ZM322.39,232c14.62,0,27.74-.06,40.86,.06,2.36,.02,3.62-1.37,5.08-2.66,25.79-22.82,51.57-45.64,77.3-68.51,1-.89,2.69-1.45,2.51-3.72-12.33,0-24.6,.09-36.86-.06-3.23-.04-5.62,.93-8.02,3.09-13.98,12.57-28.08,24.99-42.15,37.46-12.55,11.13-25.09,22.25-38.73,34.35Zm-179.91-.79c1.73,1.27,3.26,.76,4.66,.77,10.98,.05,21.97-.09,32.95,.1,3.24,.06,5.61-.94,7.99-3.06,25.71-22.91,51.51-45.72,77.24-68.61,.84-.75,2.52-1.22,1.82-3.24-11.78,0-23.58,.16-35.37-.09-4.12-.08-7.16,1.09-10.24,3.86-16.92,15.26-34.04,30.3-51.09,45.43-9.28,8.23-18.55,16.47-27.96,24.83Zm179.86,202.78c14.81,0,28.22-.02,41.64,.02,1.94,0,2.93-1.4,4.14-2.47,25.79-22.83,51.57-45.67,77.33-68.54,1.05-.93,2.53-1.59,2.88-3.83-11.4,0-22.64,.23-33.88-.1-5.32-.16-9.58,.89-13.32,4.96-3.36,3.66-7.42,6.66-11.15,9.97-22.16,19.64-44.31,39.29-67.64,59.98Zm321.16-210.78c-13.37,25.63-26.46,50.73-39.56,75.83,.28,.16,.55,.32,.83,.48,24.29-21.55,48.57-43.1,73.56-65.27-13.09-.99-26.45,2.82-34.82-11.03Zm-145.98,212.98c-13.32-.77-26.67,2.63-34.93-10.88-13.41,25.69-26.5,50.76-39.59,75.84,.23,.17,.46,.34,.68,.51,24.31-21.55,48.61-43.1,73.84-65.47Zm-74.44-137.15c.23,.2,.47,.4,.7,.6,24.31-21.57,48.63-43.14,72.94-64.71-.16-.44-.32-.89-.48-1.33-6.11,0-12.26,.4-18.33-.11-6.52-.54-11.61-4.16-15.33-10.08-13.38,25.62-26.44,50.62-39.5,75.63Zm180.93,201.77l.91,.51c24.18-21.45,48.36-42.9,73.37-65.09-13.18-.91-26.7,2.69-34.79-11.06-13.31,25.5-26.4,50.57-39.48,75.64Zm361.84-202.25c.31,.22,.61,.43,.92,.65,24.16-21.43,48.32-42.86,72.48-64.29-.14-.43-.27-.86-.41-1.29-6.1,0-12.24,.49-18.28-.13-6.52-.67-12.08-3.63-15.21-10.59-13.32,25.52-26.41,50.59-39.5,75.66Zm-141.49,126.57c-13.29,25.46-26.44,50.67-39.6,75.88,.26,.17,.53,.34,.79,.51,24.29-21.56,48.58-43.12,73.56-65.28-13.23-.94-26.76,2.78-34.75-11.11ZM101.02,223.18c-13.27,25.41-26.28,50.32-39.28,75.24,.31,.24,.62,.47,.93,.71,24.15-21.42,48.31-42.85,73.11-64.85-12.83-1.12-26.25,2.88-34.76-11.1Zm389.26,144.82c13.44-25.74,26.51-50.77,39.58-75.79-.26-.18-.51-.35-.77-.53-24.25,21.51-48.49,43.02-73.53,65.23,13.13,.95,26.24-2.53,34.72,11.08Zm514.98,56.98c-13.31,25.51-26.35,50.5-39.39,75.5,.32,.21,.64,.41,.96,.62,24.13-21.42,48.27-42.84,73.05-64.83-27.77-1.58-28.97-1.97-34.63-11.28ZM529.86,90.27c-.24-.19-.49-.38-.73-.57-24.24,21.5-48.49,43.01-73.53,65.23,13.28,.87,26.54-2.42,34.72,11.06,13.36-25.57,26.45-50.65,39.55-75.72Zm-248.01,334.86c-13.46,25.78-26.56,50.87-39.65,75.96l.69,.53c24.31-21.57,48.63-43.14,73.69-65.38-13.11-.98-26.42,2.68-34.73-11.12Zm-180.8-.07c-13.29,25.45-26.29,50.36-39.29,75.26,.31,.24,.62,.49,.92,.73,24.08-21.36,48.17-42.72,73.02-64.77-12.98-1.1-26.38,2.69-34.65-11.22Zm683.83-126.29c.41,.21,.79,.49,.86,.43,24.26-21.41,48.49-42.84,73.46-64.93-13.15-1.07-26.78,2.86-34.83-11.1-13.23,25.34-26.36,50.47-39.49,75.61Zm-435.92-6.43l-.79-.58c-24.21,21.48-48.42,42.95-73.43,65.13,13.06,1.07,26.67-2.72,34.67,11.18,13.33-25.53,26.44-50.62,39.54-75.72Zm-106.29,5.9c.37,.22,.74,.44,1.11,.65,24.03-21.32,48.06-42.63,72.89-64.66-13.21-.93-26.64,2.75-34.88-10.92-13.27,25.41-26.19,50.17-39.12,74.92Zm66.79-132.18c13.35-25.58,26.41-50.61,39.48-75.64l-.83-.55c-24.18,21.45-48.36,42.9-73.31,65.04,13.06,.97,26.39-2.47,34.66,11.15Zm723.28,.09c13.2-25.29,26.31-50.38,39.41-75.47-.29-.22-.58-.44-.87-.65-24.1,21.38-48.21,42.76-73.13,64.88,13.25,.98,26.62-2.47,34.59,11.25Zm-.1,202.15c13.43-25.73,26.48-50.75,39.54-75.76-.29-.2-.59-.4-.88-.59-24.12,21.4-48.23,42.8-73.15,64.91,7.41,.78,13.56-.25,19.62,.9,6.37,1.21,11.64,3.86,14.88,10.55Zm-361.53-.31c13.39-25.62,26.54-50.8,39.7-75.97-.22-.17-.44-.35-.65-.52-24.32,21.57-48.64,43.14-73.82,65.46,13.17,.87,26.44-2.61,34.77,11.03Zm220.14-75.24c-.3-.23-.59-.46-.89-.69-24.1,21.37-48.2,42.74-73.09,64.82,13.17,1.07,26.64-2.7,34.65,11.2,13.29-25.45,26.31-50.39,39.33-75.33ZM93.83,356.95c13.39,.85,26.73-2.58,34.77,11.07,13.24-25.35,26.34-50.43,39.44-75.51-.27-.21-.54-.43-.81-.64-24.17,21.43-48.33,42.85-73.41,65.08ZM710.79,90.1c-.19-.21-.38-.42-.57-.63-24.32,21.57-48.64,43.13-73.57,65.25,6.92,1.07,13.05-.06,19.08,1,6.48,1.15,11.72,3.97,15.36,10.34,13.46-25.76,26.58-50.86,39.69-75.96ZM94.03,154.82c7.25,.83,13.41-.12,19.53,.94,6.51,1.13,11.5,4.3,15.08,10.25,13.31-25.52,26.35-50.51,39.39-75.5-.29-.19-.58-.37-.86-.56-24.12,21.39-48.23,42.77-73.14,64.86Zm757.88,11.3c13.28-25.44,26.34-50.46,39.4-75.47-.3-.2-.61-.4-.91-.6-24.1,21.38-48.2,42.77-73.13,64.88,13.21,.89,26.32-2.44,34.64,11.19Zm92.12,194.15c-3.88-.59-8.37-2.97-10.83,.42-3.41,4.69-5.6,10.26-8.31,15.46l.71,.44c6.15-5.44,12.29-10.88,18.44-16.31Zm-180.8-.05c-.18-.42-.35-.85-.53-1.27-3.47,1.27-7.96-1.9-10.54,1.96-3.17,4.73-5.42,10.08-8.06,15.16,.23,.16,.46,.31,.7,.47,6.14-5.44,12.29-10.88,18.43-16.32Zm-361.71,0c-.21-.36-.42-.72-.63-1.09-3.42,.8-7.79-1.96-10.23,1.51-3.18,4.52-5.3,9.79-7.88,14.74l.87,.69c5.96-5.29,11.91-10.57,17.87-15.86Zm182.01-1.04c-5.14,.44-9.53-1.86-12.02,1.5-3.26,4.39-5.28,9.69-7.83,14.6,.31,.23,.61,.46,.92,.69,5.93-5.26,11.85-10.51,18.92-16.79Zm-381.67,16.31c.31,.22,.61,.44,.92,.66,5.96-5.31,11.92-10.61,17.88-15.92-.17-.38-.34-.76-.5-1.14-3.47,.94-7.81-1.93-10.39,1.74-3.17,4.51-5.32,9.74-7.91,14.66Zm187.87-160.38c-.23-.17-.46-.34-.7-.51-6.22,5.53-12.45,11.06-19.56,17.39,3.42,0,5.41,0,7.4,0,2.14,.01,4.14,.3,5.37-2.37,2.28-4.94,4.97-9.69,7.49-14.52Zm180.54,.66c-.31-.23-.62-.45-.93-.68-6.02,5.35-12.03,10.7-18.05,16.04,3.97,.29,8.4,2.71,10.73-.36,3.42-4.49,5.56-9.96,8.25-15Zm-361.5-.38l-.8-.59c-6.12,5.45-12.24,10.89-19.32,17.2,3.25,0,5.18,.06,7.11-.02,2.04-.08,4.2,.63,5.49-2.13,2.3-4.92,4.99-9.65,7.52-14.46Zm542.35,.21c-.27-.21-.54-.42-.82-.63-6.04,5.36-12.07,10.72-19.16,17.02,3.3,0,5.22,.12,7.11-.03,1.82-.15,3.96,.9,5.21-1.61,2.46-4.96,5.1-9.84,7.66-14.75Zm161.9,15.44c3.83,.26,8.35,2.77,10.66-.13,3.36-4.23,5.31-9.59,7.86-14.47-.39-.26-.78-.51-1.16-.77l-17.35,15.37Z"/>
  </g>
</svg>