<?xml version="1.0" encoding="UTF-8"?>
<svg id="Layer_2" data-name="Layer 2" xmlns="http://www.w3.org/2000/svg" viewBox="0 0 1390.9 915.5">
  <g id="Layer_1-2" data-name="Layer 1">
    <g>
      <path d="M122,104.3L.7,208.5l51.3,.5,51.3,.5,6,3c7,3.5,10.5,8,10.5,13.4,0,2.8-10.9,23.5-50.8,97.1-28,51.4-50.7,93.7-50.6,93.8,.1,.2,55-46.6,121.9-104l121.7-104.3-51.9-.5-51.8-.5-5-2.7c-9.7-5.1-12.8-11.1-9.6-18.2,1-2.3,24.1-45.2,51.4-95.4C222.3,41.1,244.3,0,243.9,.1c-.3,0-55.2,46.9-121.9,104.2Z"/>
      <path d="M512.8,104.3l-121.5,104.2,51.5,.5c49.6,.5,51.7,.6,56,2.6,6,2.8,12,9.5,12,13.4s3.9-3.5-52,99.5c-26.2,48.4-48.3,89.1-49,90.4l-1.3,2.5,2.6-2c5.8-4.3,240.6-206,240.6-206.7,.1-.4-22.1-.7-49.2-.7-41.6,0-50.2-.2-54.5-1.5-8.9-2.7-16-10.7-14.8-16.6,.3-1.5,23.3-44.7,51.1-96C612.1,42.7,634.7,.6,634.6,.4c-.2-.1-55,46.6-121.8,103.9Z"/>
      <path d="M860.1,103.8c-66.6,57-121.2,104-121.2,104.4-.1,.5,22.1,.8,49.3,.8,54.9,0,55.9,.1,63.5,6.6,4.9,4.3,6.7,8.5,5.4,12.7-.6,1.8-23.6,44.8-51.1,95.6-27.6,50.9-50.1,92.6-49.9,92.7,.2,.2,55-46.6,121.8-103.9l121.4-104.2-51.5-.5c-45.9-.4-51.9-.7-55.3-2.2-7.8-3.6-12.7-9-12.7-14.3,0-2.1,14.9-30.6,49.1-93.5C979.6,4.5,982,0,981.6,0c-.2,0-54.8,46.7-121.5,103.8Z"/>
      <path d="M1250.3,104.2l-121.6,104.3,51.3,.5c50.9,.5,51.3,.5,56.3,2.8,9.6,4.4,13.8,11.1,11.1,17.7-.8,1.7-23.7,44.5-51.1,94.9-27.3,50.4-49.6,91.9-49.4,92,.2,.2,55-46.5,121.7-103.8l121.4-104.1-51.4-.5-51.3-.5-5.6-2.6c-6.9-3.3-10.9-8.1-10.9-13.3,0-3.1,9.1-20.7,49.1-94.4,27-49.9,50-92.2,51.1-94,1.1-1.7,1.7-3.2,1.5-3.2-.3,0-55.3,46.9-122.2,104.2Z"/>
      <path d="M27.2,24.3L0,47.5l11.7,.5c11.4,.5,14.1,1.1,14.1,3.2,0,.5-4.7,9.6-10.4,20.1-5.8,10.6-10.8,20.1-11.2,21.1-.4,1.1,11.5-8.6,26.6-21.5l27.3-23.4-12.1-.3c-9-.2-12.3-.6-13.2-1.7-1.2-1.4,2.1-8.1,18.7-38.3,1.9-3.4,3.3-6.2,3.1-6.2-.1,0-12.5,10.5-27.4,23.3Zm20.8-13.1c-9.9,17.8-17.2,31.8-17.2,33.1,0,2.6,2,3.2,13.4,3.7l11,.5-24.3,20.8c-20.1,17.3-23.9,20.2-22.3,17,1.1-2.1,5.6-10.5,10.1-18.7s8.1-15.7,8.1-16.7c0-2.8-1.8-3.4-13.1-3.9l-10.7-.5L26.6,26.2C39.5,15.1,50.3,6,50.5,6c.3,0-.9,2.4-2.5,5.2Z"/>
      <path d="M764.4,24.4l-26.9,23.1,11.4,.5c11.7,.5,13.9,1.1,13.9,3.5,0,.8-4,8.8-8.9,17.7-4.8,9-9.8,18.3-11.1,20.7l-2.2,4.4,3-2.4c8.9-7.1,51.1-43.5,51.1-44.2,.1-.4-4.8-.7-10.8-.7-12,0-14.1-.4-14.1-2.8,0-.9,5-10.8,11.1-22,6-11.2,10.9-20.5,10.7-20.7-.2-.1-12.4,10.2-27.2,22.9Zm13.3,1c-9.8,18.1-10.1,18.8-8.4,20.7,1.6,1.6,3.2,1.9,12.2,1.9,5.6,0,10.3,.3,10.2,.7,0,.7-35.4,31.2-44.2,38.3l-3.2,2.5,4.6-8.5c16.6-30.7,16.3-30,14.5-31.8-1.3-1.3-4.2-1.8-12.3-2.2l-10.7-.5,23.4-20.1c12.9-11.1,23.6-20.1,23.8-19.9,.1,.1-4.3,8.7-9.9,18.9Z"/>
      <path d="M1155,24.5l-27.4,23.5h11.2c10.8,0,15,.9,15,3.2,0,.6-5,10.3-11.1,21.5-6.1,11.3-10.9,20.6-10.7,20.8,.1,.1,12.4-10.1,27.3-22.9l26.9-23.1-12.1-.3c-9-.2-12.4-.6-13.3-1.7-1-1.2,1-5.4,10-22.2,6.2-11.4,11.5-21.1,11.7-21.6,.2-.4,.3-.7,.1-.7s-12.6,10.6-27.6,23.5Zm22.7-16.3c-.7,1.3-5.2,9.6-10,18.5-4.9,8.9-8.9,16.9-8.9,17.7,0,2.5,2.1,3.1,13.5,3.6l10.9,.5-23.4,20.1c-12.9,11.1-23.7,20-23.8,19.9-.2-.2,3.9-8.3,9.2-18s9.6-18.4,9.6-19.5c0-2.9-1.7-3.5-13.1-4l-10.7-.5,23.7-20.2c13-11.2,23.7-20.3,23.9-20.3,.1,0-.3,1-.9,2.2Z"/>
      <path d="M417,24.8l-26.3,22.7,12,.5c7.3,.3,12.5,1,13.2,1.7,1.1,1.1-2.7,9-19,38.3-4.4,8.1-6.2,9.4,26.8-19l25.1-21.5-10.8-.2c-12.7-.3-15.2-.8-15.2-2.9,0-.9,4.2-9.3,9.4-18.8,11.9-21.8,12.8-23.6,11.9-23.5-.5,0-12.6,10.3-27.1,22.7Zm14.4-.2c-5.3,9.7-9.6,18.5-9.6,19.4,0,3.1,2.5,3.9,13.4,4.2l10.7,.3-22.7,19.5c-12.5,10.7-23.4,19.9-24.2,20.4-.9,.5-.2-1.4,1.5-4.5,8.6-15.3,17.3-31.8,17.3-32.7,0-2.6-3.7-3.7-13.8-4.2l-10.5-.5,23.4-20.1c12.9-11.1,23.6-20,23.8-19.8,.1,.1-4,8.2-9.3,18Z"/>
      <path d="M622.4,349.4l-26.9,23.1,11.4,.5c11.7,.5,13.9,1.1,13.9,3.5,0,.8-4.9,10.5-11,21.6-6,11.1-10.9,20.4-10.7,20.5,.4,.5,53.6-45,53.6-45.9,.1-.4-4.8-.7-10.8-.7-12,0-14.1-.4-14.1-2.8,0-.9,5-10.8,11.1-22,6-11.2,10.9-20.5,10.7-20.7-.2-.1-12.4,10.2-27.2,22.9Zm13.3,1c-9.7,18-10,18.8-8.4,20.6,1.5,1.6,3.4,2,12.5,2.2l10.7,.3-21.4,18.5c-29.4,25.3-27.7,24.2-22.2,14,16.1-29.8,16-29.5,14.5-31.6-1.2-1.6-3.1-2-12.2-2.4l-10.8-.5,23.4-20.1c12.9-11.1,23.6-20.1,23.8-19.9,.1,.1-4.3,8.7-9.9,18.9Z"/>
      <path d="M969.4,349.3l-27,23.2,11.5,.5c11.3,.5,13.9,1.1,13.9,3.2,0,.7-5,10.4-11.1,21.6-6,11.2-10.9,20.6-10.7,20.7,.2,.2,12.5-10.1,27.3-22.8l27-23.2-12.2-.3c-9-.2-12.4-.6-13.3-1.7s.7-4.8,8.3-18.7c10-18.3,13.9-25.8,13.5-25.8-.2,0-12.4,10.5-27.2,23.3Zm17.4-7.1c-12.3,22.8-14.5,27.7-13.2,29,.8,.8,5.4,1.5,12.5,1.8l11.2,.5-23.5,20.2c-12.9,11.1-23.6,20-23.8,19.9-.2-.2,4-8.2,9.3-17.9,5.2-9.6,9.5-18.5,9.5-19.6,0-3.1-3.6-4.1-14.6-4.1h-9.6l23.9-20.5c13.1-11.2,23.9-20.5,24.1-20.5s-2.4,5.1-5.8,11.2Z"/>
      <path d="M1360,349.2l-27.1,23.3,11.9,.5c7.6,.3,12.4,1,13.2,1.8,1.3,1.3,1.9,.1-14,29.2-4.4,8-7.8,14.7-7.6,14.8,.1,.2,12.4-10.1,27.4-23l27.1-23.3-12.2-.5c-9.4-.4-12.4-.8-13.1-2-.9-1.4,3.4-9.9,18.8-37.8,1.9-3.4,3.3-6.2,3.1-6.2s-12.6,10.5-27.5,23.2Zm22-15c-5.3,8.8-18.2,33.7-18.2,35.1,0,2.6,2,3.2,13.4,3.7l10.9,.5-23.6,20.2c-13,11.2-23.8,20.3-24.1,20.3-.2,0,4.1-8.2,9.5-18.3,5.4-10,9.9-18.7,9.9-19.3,0-2.8-3.6-3.9-13.6-4.4l-10.4-.5,23.7-20.3c13-11.1,23.8-20.2,24.1-20.2,.2,0-.5,1.5-1.6,3.2Z"/>
      <path d="M231.4,349.7l-26.6,22.8,11.8,.5c11.1,.5,14.2,1.1,14.2,2.9,0,.7-10.6,20.6-19.7,37-1.9,3.5-2.9,5.9-2.1,5.5,.8-.5,13.3-11,27.7-23.4l26.2-22.5-12.2-.5c-9.4-.4-12.4-.8-13.1-2-.8-1.2,1.8-6.7,10.1-21.9,6.1-11.3,10.9-20.6,10.7-20.8s-12.3,9.9-27,22.4Zm14.3-.5c-5.4,10.1-9.9,19-9.9,19.9,0,3,2.6,3.8,13.4,4.1l10.7,.3-23.6,20.3c-13,11.2-23.8,20.2-23.9,20-.2-.1,4.1-8.4,9.5-18.3s9.9-18.5,9.9-19.1c0-2.8-3.6-3.9-13.7-4.4l-10.4-.5,23.6-20.3c13-11.1,23.8-20.2,24-20.2,.1,0-4.2,8.2-9.6,18.2Z"/>
      <path d="M122.4,599.8L.6,704.5l51.8,.5,51.9,.5,5.2,2.7c6.7,3.6,10.3,8.2,10.3,13.4-.1,3.2-8.9,20.1-50.9,97.4-27.9,51.4-50.7,93.6-50.5,93.8,.1,.2,54.9-46.6,121.8-104l121.6-104.3-51.2-.5c-50.9-.5-51.3-.5-56.3-2.8-10.2-4.7-13.9-11.2-10.6-18.6,1-2.3,23.4-43.9,49.8-92.6,48.9-90.2,51.6-95.1,51.1-94.9-.2,0-55.1,47.2-122.2,104.7Z"/>
      <path d="M512.8,600.3l-121.5,104.2,51.5,.5,51.5,.5,5.8,2.8c6.5,3.2,10.7,8.4,10.7,13.2,0,2.1-14,28.8-45.8,87.5-25.2,46.5-48.2,89-51.2,94.5-5.3,9.8-5.3,10-2.2,7.5,8.3-6.6,240.1-205.6,240.1-206.3,.1-.4-22.2-.7-49.4-.7-42.7,0-50.1-.2-54.2-1.6-9.3-3.1-15.8-10.1-14.9-16,.2-1.8,23.2-45.2,51-96.4,27.9-51.3,50.5-93.4,50.3-93.6-.1-.2-54.9,46.6-121.7,103.9Z"/>
      <path d="M860,599.7c-66.6,57.1-121.1,104.1-121.1,104.5-.1,.5,22.1,.8,49.2,.8,41.6,0,50.2,.2,54.5,1.5,8.8,2.7,16,10.7,14.8,16.6-.3,1.5-23.3,44.7-51.1,96s-50.4,93.3-50.2,93.5c.1,.1,54.9-46.6,121.7-103.9l121.5-104.2-51.5-.5c-49.6-.5-51.7-.6-56-2.6-6-2.8-12-9.5-12-13.4s-3.9,3.6,52-99.5c54.8-101,50.2-92.5,49.7-92.5-.2,0-54.9,46.7-121.5,103.7Z"/>
      <path d="M1250,600.3l-121.4,104.2,51.9,.5,51.8,.5,5,2.7c9,4.7,12.7,11,10.1,17.2-.7,1.7-23.4,43.9-50.4,93.6-27,49.8-49.4,91.4-49.8,92.5-.4,1,54-45.1,121-102.6l121.7-104.4-51.4-.5-51.3-.5-5.9-3c-6.8-3.5-10.5-8.1-10.5-13.3,0-2.7,11.1-24,49.6-95.1,27.3-50.4,50.3-92.6,51-93.9,.8-1.2,1.1-2.2,.7-2.1-.5,0-55.4,46.9-122.1,104.2Z"/>
      <path d="M27.1,520.2L0,543.5l11.7,.5c11.3,.5,14.1,1.1,14.1,3.1,0,.5-5.1,10.4-11.4,22s-11.1,20.9-10.7,20.7,12.8-10.7,27.5-23.3l26.7-23-12-.5c-7.4-.3-12.5-1-13.2-1.7-1.1-1.1,5.2-13.9,19.3-39.1,1.7-2.8,2.8-5.2,2.5-5.2-.2,0-12.6,10.5-27.4,23.2Zm21.4-14c-7.1,12.4-17.7,32.8-17.7,34.2,0,2.5,2.1,3.1,13.4,3.6l10.9,.5-23.8,20.4c-13.1,11.2-23.5,19.6-23.2,18.6,.4-.9,4.8-9.2,9.7-18.3,5-9.1,9-17.4,9-18.3,0-2.8-1.8-3.4-13.2-3.9l-10.8-.5,23.7-20.3c13-11.1,23.8-20.2,24.1-20.2,.2,0-.7,1.9-2.1,4.2Z"/>
      <path d="M417.4,520.4l-26.9,23.1,12.1,.5c7.3,.3,12.6,1,13.3,1.7,.9,.9-1.5,6.1-10.1,22-6.2,11.4-11.5,21.2-11.8,21.8-1,1.7,4.2-2.6,29.6-24.5l24.9-21.5-12-.5c-9.5-.4-12.2-.8-13-2.1-.7-1.2,1.6-6.4,10.3-22.3,6.2-11.4,11.1-20.9,10.9-21-.2-.2-12.5,10.1-27.3,22.8Zm14,.1c-5.3,9.7-9.6,18.5-9.6,19.5,0,2.9,1.8,3.5,13.2,4l10.8,.5-22.2,19c-22.3,19.1-26.6,22.6-25.6,20.9,3.7-6.2,19.8-36.5,19.8-37.2,0-2.6-3.8-3.7-13.8-4.2l-10.5-.5,23.4-20.1c12.9-11.1,23.6-20,23.7-19.8,.2,.1-3.9,8.2-9.2,17.9Z"/>
      <path d="M764.3,520.4l-26.9,23.1,12.2,.5c15,.6,15.4,1,10.7,9.5-8.8,15.8-19.5,35.9-19.2,36.1,.1,.1,12.5-10.3,27.5-23.2l27.4-23.4h-11.5c-12.6,0-14.7-.4-14.7-2.9,0-.9,5-10.8,11-22,6.1-11.2,10.9-20.5,10.8-20.6-.2-.2-12.4,10.1-27.3,22.9Zm13.4,1c-9.8,18-10.1,18.7-8.4,20.6,1.5,1.6,3.4,2,12.5,2.2l10.8,.3-21,18c-11.5,9.9-22.3,19.1-24,20.4l-3.1,2.4,1.3-2.4c.7-1.3,5.3-10,10.3-19.2,11-20.5,11.1-19.9-5-20.7l-10.7-.5,23.4-20.2c12.9-11.1,23.6-20,23.8-19.9,.1,.2-4.3,8.7-9.9,19Z"/>
      <path d="M1155.2,520.3l-27.2,23.2,11.7,.5c11.4,.5,14.1,1.1,14.1,3.1,0,.6-4.9,10.2-11,21.4-6,11.1-11,20.5-11,20.9,0,.3,12.2-9.8,27.1-22.6l27.2-23.3-12.1-.5c-7.3-.3-12.6-1-13.3-1.7-.9-.9,1.5-6.1,10.1-22,6.2-11.4,11.5-21.1,11.7-21.6,.2-.4,.3-.7,.1-.7s-12.5,10.5-27.4,23.3Zm23.3-17.6c-5.5,9.4-19.7,36.6-19.7,37.7,0,2.5,2.1,3.1,13.4,3.6l11,.5-24.3,20.8c-17.6,15.2-23.8,20-22.5,17.6,.9-1.8,5.4-10.2,10-18.7,8.4-15.3,9.5-18.4,7.2-19.9-.7-.4-6.1-1-12-1.3l-10.7-.5,23.6-20.3c13-11.1,23.8-20.2,24-20.2s.2,.3,0,.7Z"/>
      <path d="M231.8,845.2l-27.1,23.3,12,.5c7.3,.3,12.5,1,13.2,1.7,.9,.9-.9,5.1-8.1,18.5-5.1,9.5-10.5,19.3-11.9,21.8l-2.6,4.5,2.7-2c1.5-1.1,13.9-11.7,27.7-23.5l25.1-21.5-12.2-.5c-9.4-.4-12.3-.8-13.1-2-.7-1.2,1.9-6.8,10.6-22.8,6.3-11.7,11.4-21.2,11.2-21.2s-12.5,10.5-27.5,23.2Zm21.1-13.3c-1.1,2.1-5.4,10.1-9.6,17.6-7.6,13.9-8.5,16.7-6.2,18.2,.6,.4,6.1,1,12,1.3l10.8,.5-22.7,19.5c-12.5,10.7-23.4,19.9-24.2,20.4-1,.6-.7-.6,1-3.5,6.2-10.8,17.8-32.7,17.8-33.6,0-2.7-3.7-3.8-13.7-4.3l-10.4-.5,22.8-19.7c12.5-10.8,23.1-19.7,23.6-19.7,.4-.1-.2,1.7-1.2,3.8Z"/>
      <path d="M622.3,845.4l-26.9,23.1,11.4,.5c11.7,.5,14,1.1,14,3.5,0,.7-4.9,10.4-11,21.6-6,11.1-10.9,20.4-10.7,20.5,.1,.1,12.5-10.3,27.5-23.2l27.4-23.4h-11.5c-12.6,0-14.7-.4-14.7-2.9,0-.9,5-10.8,11-22,6.1-11.2,10.9-20.5,10.8-20.6-.2-.2-12.4,10.1-27.3,22.9Zm13.4,1c-9.8,18-10.1,18.7-8.4,20.6,1.5,1.6,3.4,2,12.5,2.2l10.8,.3-21,18c-11.5,9.9-22.3,19.1-24,20.4l-3.1,2.4,1.3-2.4c.7-1.3,5.3-10,10.3-19.2,11-20.5,11.1-19.9-5-20.7l-10.7-.5,23.4-20.1c12.9-11.1,23.6-20.1,23.8-19.9,.1,.1-4.3,8.6-9.9,18.9Z"/>
      <path d="M969,845.5l-27.4,23.5h11.2c10.8,0,15,.9,15,3.2,0,.6-5,10.3-11.1,21.5-6.1,11.3-10.9,20.6-10.7,20.8,.2,.1,12.4-10.1,27.3-22.9l26.9-23.1-12.1-.5c-7.2-.3-12.7-1-13.4-1.7-.8-.8,1.4-5.6,8.9-19.5,11-20.3,13.4-24.8,13-24.8-.2,0-12.6,10.6-27.6,23.5Zm22.2-15.3c-.9,1.7-5.4,10.1-10.1,18.6-8.6,15.9-9.3,18.7-5,19.7,1.2,.3,6.5,.6,11.7,.8l9.5,.2-23.5,20.2c-12.9,11.1-23.6,20-23.8,19.8-.2-.1,4-8.2,9.2-17.9,9.5-17.4,10.8-20.7,8.4-22.3-.7-.4-6.1-1-11.9-1.3l-10.7-.5,23.7-20.2c13-11.2,23.7-20.3,23.9-20.3,.1,0-.5,1.4-1.4,3.2Z"/>
      <path d="M1360,845.2l-27.2,23.3,11.8,.5c11.1,.5,14.2,1.1,14.2,2.9,0,.7-11.4,22.2-20.1,37.9-1.7,3-2.4,5-1.6,4.5,.7-.4,13.2-10.9,27.6-23.3l26.2-22.5-12.2-.5c-9.4-.4-12.4-.8-13.1-2-.9-1.4,7.7-18.6,19.8-39.8,1.4-2.3,2.3-4.2,2.1-4.2s-12.6,10.5-27.5,23.2Zm13.7,0c-5.4,10.1-9.9,19.1-9.9,20,0,2.7,1.9,3.3,13.3,3.8l10.8,.5-23.7,20.3c-12.9,11.2-23.7,20.2-23.8,20-.2-.1,4.1-8.4,9.5-18.3,5.5-9.9,9.9-18.8,9.9-19.7,0-2.7-1.9-3.3-13.3-3.8l-10.8-.5,23.6-20.3c13-11.1,23.8-20.2,24-20.2s-4.1,8.2-9.6,18.2Z"/>
    </g>
  </g>
</svg>