<?xml version="1.0" encoding="UTF-8"?>
<svg id="Layer_2" data-name="Layer 2" xmlns="http://www.w3.org/2000/svg" viewBox="0 0 1227 1175">
  <g id="Layer_1-2" data-name="Layer 1">
    <g>
      <path d="M623.6,706.74c12.86-21.44,24.15-43.75,36.12-65.68,25.74-47.19,51.27-94.48,76.89-141.73,5.34-9.84,3.54-16.71-6.05-22.67-6.09-3.79-12.86-5.54-19.95-5.57-32.49-.13-64.99-.12-97.48-.16-1.99,0-3.99,0-6.67,0,3.59-6.64,6.95-12.86,10.32-19.08,33.79-62.32,67.58-124.63,101.36-186.96,5.65-10.43,3.51-17.83-6.86-23.62-6.4-3.58-13.36-4.93-20.64-4.92-32.16,.01-64.32,.02-96.48-.03-1.73,0-3.6,.58-5.72-.97C678.82,157.84,769.03,80.48,859.41,2.97c.81,2.22-.72,3.38-1.43,4.69-36.13,66.73-72.31,133.43-108.49,200.13-5.33,9.82-3.51,16.87,6.08,22.7,6.73,4.09,14.17,5.59,21.98,5.58,31.99-.01,63.99,0,95.98,0h5.58c.09,2.33-1.42,3.82-2.32,5.49-36.38,67.16-72.81,134.29-109.23,201.43-4.93,9.08-3.4,15.6,5.11,21.45,7.29,5.01,15.61,6.46,24.23,6.47,31.66,.04,63.32,.02,94.98,.02,1.78,0,3.55,0,5.91,0-10.59,19.55-20.85,38.53-31.13,57.5-27.14,50.03-54.29,100.04-81.43,150.07-4.28,7.88-3.01,14.09,4.22,19.7,7.62,5.92,16.58,7.43,25.9,7.44,31.49,.03,62.99,.01,94.48,.01,1.82,0,3.65,0,6.26,0-2.81,5.21-5.35,9.94-7.9,14.65-34.59,63.78-69.18,127.56-103.77,191.34-5.69,10.5-3.64,17.68,6.75,23.61,6.23,3.55,13.01,4.99,20.12,5,33.49,.02,66.99,.02,100.48-.01,1.26,0,2.7,.49,3.73-.79l-.06-.11c-9.71,9.92-20.67,18.43-31.17,27.45-78.99,67.85-158.06,135.6-237.11,203.37-1.12,.96-2.29,1.87-3.83,3.11-.47-2.81,1.23-4.37,2.16-6.09,35.74-66,71.53-131.98,107.31-197.97,5.74-10.59,3.4-18.11-7.2-23.9-7.58-4.15-15.83-4.91-24.19-4.93-30.83-.06-61.67-.02-92.5-.02h-6.04c8.34-15.4,16.38-30.28,24.45-45.15,29.12-53.69,58.25-107.38,87.37-161.07,5.41-9.98,3.43-17.21-6.4-23.03-6.79-4.01-14.28-5.34-22.06-5.35-33-.02-66-.02-99,.02-1.23,0-2.72-.53-3.66,.88-.01-.02,.02,.08,.02,.08Z"/>
      <path d="M329.89,705.97c-4.7,10.82-10.86,20.87-16.46,31.22-31.59,58.41-63.29,116.76-94.94,175.14-5.16,9.52-3.24,16.63,6.11,22.33,7.04,4.29,14.81,5.65,22.97,5.63,31.67-.07,63.33-.03,95-.03,1.78,0,3.56,0,5.33,0l.52,1.06c-90.39,77.53-180.77,155.05-271.16,232.58-.23-.17-.46-.35-.69-.52,5.26-9.74,10.51-19.49,15.78-29.22,31.81-58.67,63.64-117.33,95.44-176,4.85-8.94,3.12-15.55-5.39-21.38-7.96-5.45-17.04-6.37-26.27-6.39-31-.08-62-.02-93-.06-1.76,0-3.61,.47-5.55-.54,14.69-27.1,29.34-54.13,44-81.16,22.61-41.7,45.22-83.39,67.83-125.09,4.81-8.86,3.4-15.35-4.81-21.17-6.01-4.26-12.86-6.37-20.17-6.4-33.16-.16-66.33-.17-99.49-.23-1.77,0-3.54,0-5.84,0,10.58-19.54,20.85-38.51,31.13-57.48,27.05-49.89,54.11-99.78,81.15-149.67,4.77-8.8,3.24-15.34-5.05-21.07-6.35-4.39-13.58-6.39-21.2-6.42-32.33-.15-64.66-.13-97-.17-2.16,0-4.32,0-6.4,0-.87-1.53,.35-2.3,.85-3.24,36.96-68.19,73.94-136.36,110.89-204.54,4.06-7.5,3.11-13.03-3.37-18.67-7.02-6.11-15.55-8.09-24.6-8.11-32-.05-64-.02-96-.02H3.63c-.2-.38-.41-.75-.61-1.13C93.3,157.8,183.58,80.37,273.86,2.95c.22,.11,.44,.23,.66,.34-.53,1.17-.98,2.39-1.59,3.51-36.41,67.16-72.82,134.31-109.24,201.46-4.91,9.06-3.42,15.7,5.11,21.44,7,4.7,14.89,6.39,23.24,6.38,34.33-.02,68.67-.01,103-.01l-.06-.16c-1.34,2.08-2.82,4.09-4,6.26-36.26,66.77-72.48,133.55-108.71,200.33-5.38,9.92-3.37,17.14,6.41,22.95,6.93,4.12,14.58,5.45,22.51,5.47,33.96,.08,67.92,.11,101.88,.16,0,0-.08-.15-.08-.15-1.44,2.22-3.05,4.36-4.31,6.68-36.1,66.5-72.16,133.01-108.22,199.52-5.56,10.26-3.51,17.3,6.66,23.25,6.98,4.08,14.66,5.24,22.56,5.25,31.3,.04,62.61,0,93.91,.03,2.15,0,4.3,.25,6.44,.39,0,0-.12-.09-.12-.09Z"/>
      <path d="M295.02,236.07c34.11-29.31,68.21-58.64,102.35-87.93,54.99-47.19,110-94.35,165-141.53,1.49-1.28,3.03-2.5,5.21-3.29-6.37,11.76-12.73,23.52-19.1,35.27-30.61,56.47-61.24,112.93-91.83,169.41-5.3,9.78-3.31,16.88,6.34,22.6,6.76,4.01,14.2,5.48,22.01,5.47,32-.03,63.99-.01,95.99-.01h6c-9,16.62-17.67,32.66-26.37,48.69-28.72,52.95-57.45,105.9-86.17,158.85-4.42,8.15-3.06,14.52,4.39,20.07,7.4,5.52,16.01,7.2,24.99,7.22,31.66,.06,63.32,.02,94.99,.02h6.16c-2.01,3.76-3.77,7.08-5.56,10.37-35.54,65.53-71.09,131.06-106.63,196.6-4.86,8.95-3.02,15.97,5.75,21.68,7.25,4.72,15.42,6.05,23.86,6.05,31.66,.03,63.32,0,94.99,.04,2.09,0,4.37-.64,6.22,1.05,.01,.02-.02-.08-.01-.06-1.85,.87-2.26,2.81-3.1,4.36-36.59,67.41-73.15,134.84-109.7,202.27-4.25,7.83-2.95,14.2,4.18,19.65,7.48,5.72,16.18,7.35,25.4,7.33,31.66-.06,63.31-.02,94.97-.02,1.79,0,3.58,0,5.37,0,.19,.34,.37,.68,.56,1.01-90.34,77.49-180.69,154.98-271.03,232.47-.25-.19-.5-.38-.75-.57,3.99-7.4,7.96-14.81,11.97-22.2,32.83-60.55,65.68-121.1,98.51-181.65,5.78-10.66,3.56-18.09-7.08-23.99-7.55-4.19-15.82-4.93-24.19-4.94-30.99-.06-61.98-.03-92.97-.03-1.66,0-3.32,0-5.64,0,5.24-9.69,10.24-18.95,15.26-28.2,32.35-59.68,64.7-119.36,97.04-179.04,4.52-8.33,3.1-14.75-4.52-20.4-5.65-4.18-12.16-6.6-19.06-6.64-36.31-.21-72.62-.1-108.93-.1,0,0,.12,.09,.12,.09,3.42-1.47,4.37-4.9,5.91-7.75,35.93-66.17,71.8-132.38,107.69-198.58,5.75-10.61,3.59-17.87-7.13-23.84-7.36-4.1-15.39-4.98-23.64-4.97-33.29,.03-66.58,.01-99.87,.01,0,0,.08,.15,.08,.15,1.07-1.67,2.26-3.28,3.2-5.02,36.56-67.36,73.01-134.78,109.73-202.06,5.72-10.48,.89-17.03-5.45-21.39-6.82-4.69-14.58-6.26-22.73-6.26-32.13,0-64.26,0-96.4-.02-2.15,0-4.3-.28-6.45-.43l.06,.16Z"/>
      <path d="M935.51,939.45c2.64-2.45,3.77-5.84,5.42-8.88,35.58-65.52,71.11-131.08,106.64-196.63,5.22-9.62,3.42-16.54-5.87-22.39-5.77-3.63-12.14-5.56-18.92-5.59-33-.15-65.99-.16-98.99-.22-1.83,0-3.66,0-6.24,0,2.67-4.98,5.11-9.58,7.59-14.15,34.84-64.22,69.68-128.45,104.51-192.67,4.96-9.15,3.28-16-5.45-21.78-6.29-4.16-13.37-6.02-20.82-6.05-32.5-.13-65-.12-97.49-.16-1.98,0-3.97,0-6.64,0,5.51-10.2,10.75-19.97,16.03-29.71,31.73-58.52,63.48-117.04,95.22-175.56,6.34-11.7,3.77-19.65-8.33-25.41-5.95-2.83-12.32-3.92-18.91-3.91-31.83,.03-63.67,.01-95.5,.01h-5.92l-.56-1.07c90.27-77.41,180.55-154.82,270.82-232.23,.25,.17,.49,.34,.74,.51-.86,1.7-1.67,3.43-2.58,5.1-35.85,66.13-71.72,132.25-107.58,198.38-6.02,11.1-3.72,18.65,7.52,24.51,6.34,3.3,13.16,4.54,20.27,4.53,32-.02,64,0,96,0,1.81,0,3.62,0,6.07,0-6.8,12.56-13.34,24.65-19.9,36.74-30.62,56.47-61.24,112.94-91.86,169.42-5.68,10.48-3.6,17.73,6.87,23.61,6.86,3.86,14.38,5.08,22.14,5.08,31.67,.02,63.33,0,95,.03,1.75,0,3.59-.46,5.51,.53-15.25,28.14-30.46,56.2-45.67,84.25-22.06,40.67-44.13,81.33-66.19,122-4.99,9.2-3.3,15.93,5.49,21.73,7.38,4.87,15.71,6.17,24.33,6.18,31.67,.02,63.33,0,95,0,1.66,0,3.32,0,5.02,0,.45,1.87-.92,2.88-1.56,4.06-36.79,67.9-73.63,135.76-110.45,203.64-4.2,7.75-2.95,13.88,3.99,19.38,7.27,5.75,15.8,7.53,24.84,7.53,24.17,0,48.33,0,72.5,0,9.48,0,18.96,0,28.43,0,.24,.36,.47,.73,.71,1.09-90.3,77.46-180.61,154.91-270.91,232.37-.25-.2-.5-.4-.75-.61,5.67-10.48,11.32-20.97,17-31.44,31.1-57.35,62.2-114.7,93.3-172.05,6.04-11.14,3.83-18.49-7.4-24.56-7.43-4.01-15.55-4.68-23.75-4.69-30.83-.06-61.67,0-92.5-.05-2.1,0-4.36,.63-6.26-.97-.01-.02,.05,.09,.05,.09Z"/>
    </g>
  </g>
</svg>