<?xml version="1.0" encoding="UTF-8"?>
<svg id="Layer_2" data-name="Layer 2" xmlns="http://www.w3.org/2000/svg" viewBox="0 0 1181.55 1061">
  <g id="Layer_1-2" data-name="Layer 1">
    <path d="M154.8,530.58c-4.04-1.44-6.61-4.85-9.7-7.5-46.82-40.05-93.57-80.19-140.33-120.31-.74-.64-1.43-1.33-2.34-2.19,1.73-1.5,3.62-.91,5.3-.91,16.66-.05,33.32-.03,49.98-.03,4.36,0,8.63-.42,12.62-2.44,6.74-3.41,8.13-7.56,4.57-14.13-19.89-36.72-39.81-73.42-59.7-110.13-.86-1.59-1.48-3.31-2.21-4.96,1.83,1.43,3.72,2.79,5.47,4.29,45.13,38.71,90.27,77.4,135.3,116.23,2.74,2.37,4.22,2.34,6.92,.02,45.69-39.34,91.44-78.61,137.31-117.73,3.69-3.15,3.08-4.59-.21-7.41-45.6-38.93-91.15-77.93-136.53-117.11-3.42-2.95-5.11-2.42-8.12,.17-38.23,32.94-76.53,65.8-114.9,98.59-8.32,7.11-16.15,14.82-25.25,20.99,11.89-22.12,23.76-44.26,35.69-66.37,8.77-16.26,17.63-32.47,26.41-48.72,3.24-6,2.07-9.84-3.8-13.27-4.35-2.54-9.11-2.93-13.99-2.92-16.5,.02-33,0-49.5,0-1.63,0-3.26,0-4.89,0-.19-.35-.39-.71-.58-1.06C52.9,90.31,103.48,46.93,154.47,3.2c.32,2.4-.97,3.72-1.73,5.12-19.73,36.44-39.51,72.86-59.27,109.28-3.86,7.12-2.26,11.74,5.2,15.04,3.41,1.51,7.04,1.99,10.73,1.99,31.99,.01,63.97,.02,95.96,0,4.03,0,7.96-.64,11.61-2.52,6.47-3.33,7.86-7.5,4.42-13.86-19.66-36.29-39.35-72.57-59.02-108.86-.85-1.56-1.61-3.17-1.74-5.47,1.3,1.04,2.64,2.03,3.91,3.12,44.64,38.28,89.32,76.53,133.84,114.96,3.45,2.98,5.18,1.63,7.81-.63,45.22-38.88,90.5-77.7,135.77-116.53,.62-.53,1.27-1.01,2.09-1.67,.33,2.13-.98,3.35-1.73,4.73-19.8,36.59-39.64,73.17-59.46,109.75-3.85,7.1-2.44,11.3,4.85,14.77,3.55,1.69,7.32,2.19,11.17,2.2,31.82,.02,63.64,.02,95.45,0,3.86,0,7.63-.5,11.19-2.12,7.2-3.27,8.79-7.83,5.06-14.71-19.75-36.43-39.52-72.85-59.28-109.28-.78-1.44-1.51-2.92-1.79-4.94,1.17,.89,2.4,1.72,3.51,2.68,44.26,37.95,88.52,75.92,132.77,113.88,5.5,4.72,5.53,4.76,11.03,.04,43.26-37.08,86.51-74.17,129.77-111.26,2.2-1.89,4.43-3.73,7.31-5.05-4.71,8.72-9.42,17.45-14.14,26.17-15.94,29.41-31.9,58.81-47.84,88.22-3.29,6.07-2.06,10.26,3.98,13.61,4.05,2.24,8.51,2.78,13.05,2.75,14.49-.11,28.99-.36,43.48-.35,16.83,0,33.65,.23,50.48,.36,4.03,.03,8-.35,11.73-2.01,7.49-3.33,9.09-7.95,5.23-15.07-19.53-35.98-39.08-71.96-58.61-107.94-1.02-1.89-2-3.8-2.4-6.37,3.9,3.33,7.81,6.65,11.71,9.99,42.37,36.32,84.79,72.6,127.03,109.08,3.23,2.78,4.76,1.27,6.96-.62,40.7-34.95,81.41-69.89,122.12-104.82,5.3-4.55,10.61-9.08,16.41-14.04,.02,2.34-1.19,3.66-1.96,5.08-19.66,36.29-39.34,72.57-59.04,108.84-4.59,8.46-2.56,13.5,6.71,16.56,3.2,1.06,6.5,1.34,9.85,1.32,16.99-.13,33.99-.35,50.98-.36,14.33,0,28.65,.24,42.98,.35,4.55,.04,8.99-.54,13.04-2.78,6.05-3.34,7.24-7.54,3.93-13.65-20.7-38.19-41.41-76.37-61.54-115.19,50.78,43.55,101.56,87.09,152.34,130.64-.11,.36-.23,.72-.34,1.08-2.42,0-4.83,0-7.25,0-15.83,0-31.67,.01-47.5,0-4.71,0-9.33,.36-13.55,2.72-6.08,3.41-7.33,7.5-4.01,13.62,19.89,36.73,39.81,73.45,59.69,110.19,1.02,1.89,1.84,3.89,2.75,5.84-47.16-40.44-94.33-80.86-141.41-121.39-2.54-2.19-3.99-2.24-6.52-.07-45.82,39.44-91.69,78.83-137.67,118.09-3.42,2.92-3.02,4.33,.15,7.04,45.72,39.05,91.36,78.19,136.89,117.45,3.07,2.64,4.73,2.54,7.71-.04,45.16-38.93,90.44-77.72,135.7-116.54,1.37-1.17,2.53-2.71,4.54-2.89-13.65,25.32-27.3,50.65-40.96,75.97-6.95,12.88-13.94,25.73-20.88,38.62-3.33,6.18-2.12,10.23,4.03,13.58,4.06,2.21,8.51,2.72,13.06,2.72,16.49,0,32.98,0,49.46,0,1.81,0,3.62,0,5.24,0,.75,1.4-.08,1.81-.68,2.33-50.31,43.11-100.62,86.23-150.93,129.34,1.31-5.79,4.95-10.45,7.68-15.53,17.9-33.26,35.98-66.43,53.97-99.63,3.35-6.17,2.16-10.24-3.95-13.64-2.95-1.64-6.14-2.59-9.54-2.59-33.82-.01-67.64,0-101.46,0-2.71,0-5.26,.76-7.72,1.84-7.61,3.34-9.16,7.74-5.24,14.98,19.59,36.13,39.2,72.25,58.76,108.4,1.09,2.01,2.72,3.84,2.67,6.35-46.28-39.66-92.57-79.29-138.77-119.04-2.65-2.28-4.16-2.62-6.97-.2-45.17,38.9-90.41,77.71-135.73,116.44-2.84,2.42-3.27,3.66-.18,6.3,45.34,38.7,90.59,77.51,135.82,116.36,2.25,1.93,3.69,2.93,6.53,.47,32.88-28.41,65.88-56.7,98.9-84.95,13.4-11.47,26.92-22.8,40.38-34.2-.17,2.27-1.59,3.99-2.61,5.87-19.73,36.42-39.5,72.82-59.23,109.24-3.28,6.05-1.94,10.17,4.19,13.51,4.23,2.3,8.81,2.81,13.53,2.81,30.98-.02,61.97-.02,92.95,0,3.69,0,7.32-.29,10.82-1.53,8.63-3.06,10.58-8.12,6.25-16.11-19.67-36.26-39.34-72.52-58.99-108.8-.86-1.58-2.16-3.01-2.07-4.99,17.63,15,35.29,29.96,52.88,45.01,32.01,27.41,63.98,54.87,95.95,82.33,1.2,1.03,2.83,1.71,3.55,4.07-2.83,0-5.42,0-8,0-16,0-32,.02-48-.01-4.41,0-8.64,.69-12.54,2.8-6.18,3.34-7.37,7.37-4.01,13.57,19.8,36.59,39.63,73.17,59.42,109.76,1.02,1.89,1.88,3.87,2.82,5.81-2.07-1.66-4.19-3.25-6.21-4.98-45.02-38.6-90.06-77.19-135-115.89-2.54-2.19-4-2.28-6.59-.05-45.84,39.44-91.75,78.81-137.74,118.08-3.19,2.72-3.06,4.17,.05,6.82,45.98,39.28,91.89,78.65,137.72,118.1,2.63,2.27,4.1,2.04,6.58-.11,18.37-15.94,36.85-31.74,55.33-47.56,28.6-24.48,57.21-48.93,85.82-73.4-5.99,13-13.35,25.27-20.11,37.87-13.93,25.95-28.04,51.8-42.06,77.71-3.39,6.26-2.05,10.58,4.32,13.88,4.09,2.12,8.53,2.62,13.08,2.61,16.66-.04,33.33-.02,49.99-.02,1.61,0,3.23,0,6.37,0-51.63,44.28-102.18,87.64-152.73,130.99-.3-.22-.61-.44-.91-.66,1.76-3.29,3.49-6.6,5.27-9.88,18.72-34.53,37.45-69.04,56.17-103.57,3.7-6.82,2.34-11.16-4.61-14.53-3.5-1.7-7.25-2.36-11.14-2.36-31.99,0-63.98,.01-95.98,0-3.72,0-7.33,.58-10.72,2.04-7.57,3.27-9.13,7.81-5.23,15.01,19.67,36.28,39.35,72.56,59.02,108.84,.78,1.44,1.5,2.9,1.77,4.95-1.08-.76-2.23-1.45-3.23-2.31-44.89-38.5-89.8-76.97-134.59-115.58-2.98-2.57-4.61-2.64-7.67,0-43.53,37.53-87.19,74.9-130.82,112.3-2.4,2.06-4.81,4.09-7.93,5.75,.75-1.48,1.48-2.98,2.27-4.44,19.83-36.57,39.67-73.14,59.49-109.71,3.68-6.8,2.3-11.07-4.69-14.47-3.5-1.71-7.26-2.35-11.14-2.35-32.16,0-64.32,0-96.48,0-3.89,0-7.63,.76-11.11,2.48-6.63,3.28-8.03,7.69-4.52,14.17,19.82,36.58,39.67,73.14,59.51,109.71,.78,1.44,1.53,2.9,1.71,5-2.67-2.25-5.35-4.47-7.99-6.74-43.25-37.08-86.53-74.12-129.67-111.34-3.33-2.87-5.21-2.8-8.47,.01-45.29,39.05-90.71,77.95-136.1,116.89-.49,.42-1.04,.76-2.21,.72,2.94-5.49,5.87-10.98,8.84-16.45,17.61-32.48,35.23-64.95,52.85-97.42,3.86-7.12,2.24-11.84-5.28-15-3.41-1.43-7-2.03-10.72-2.03-31.83,.03-63.65,.02-95.48,.01-4.39,0-8.62,.7-12.52,2.86-6.12,3.4-7.3,7.42-3.96,13.58,19.51,35.99,39.03,71.97,58.54,107.96,1.07,1.97,2.08,3.96,2.25,6.56-8.06-6.88-16.14-13.73-24.18-20.63-37.94-32.53-75.89-65.04-113.72-97.7-2.76-2.38-4.21-2.33-6.92,0-44.68,38.49-89.46,76.86-134.23,115.24-1.19,1.02-2.17,2.44-4.01,2.7-.38-1.95,1-3.15,1.75-4.53,19.71-36.45,39.47-72.87,59.19-109.31,3.69-6.81,2.23-11.13-4.82-14.43-3.52-1.65-7.27-2.29-11.16-2.29-31.99,0-63.98,.01-95.98,0-3.89,0-7.64,.66-11.15,2.31-6.92,3.25-8.41,7.78-4.79,14.46,19.67,36.28,39.36,72.55,59.03,108.83,.93,1.72,1.79,3.47,2.02,5.77-50.68-43.45-101.35-86.91-153.19-131.35,5.42,0,9.34,0,13.27,0,14.5,0,29-.02,43.49,.01,4.22,.01,8.33-.5,12.16-2.32,6.84-3.25,8.32-7.86,4.72-14.49-19.9-36.72-39.83-73.44-59.72-110.17-.86-1.58-2.15-3.02-2.05-5,1.02,.85,2.05,1.7,3.05,2.56,45.87,39.33,91.75,78.64,137.56,118.04,2.52,2.17,4.07,2.84,7,.29,26.28-22.79,52.72-45.4,79.14-68.02,20.48-17.53,41.02-34.99,61.53-52.46-.07,1.95-1.25,3.43-2.11,5.02-19.88,36.71-39.78,73.4-59.66,110.11-3.41,6.3-2.08,10.52,4.38,13.83,4.1,2.1,8.53,2.62,13.08,2.61,29.98-.02,59.96-.02,89.94,0,3.36,0,6.66-.28,9.86-1.29,9.17-2.88,11.34-8.24,6.82-16.6-19.02-35.09-38.02-70.19-57.09-105.26-1.56-2.88-2.66-6.1-5.29-8.32-.08-.83-.17-1.67-.25-2.51,.66,0,1.33,.02,1.99,.03-.7,2.54,1.32,3.54,2.79,4.79,45.65,39.16,91.33,78.27,136.89,117.52,2.97,2.56,4.69,2.82,7.77,.16,45.69-39.36,91.47-78.62,137.34-117.77,3.25-2.77,2.88-4.12-.13-6.68-45.98-39.28-91.89-78.64-137.72-118.09-2.61-2.24-4.11-2.1-6.59,.04-32.94,28.39-65.94,56.7-98.97,84.97-13.78,11.8-27.67,23.47-41.51,35.2-.04-2.33,1.5-4.02,2.51-5.88,19.72-36.44,39.48-72.86,59.21-109.3,3.07-5.67,1.87-9.8-3.68-12.97-3.85-2.2-8.06-3.06-12.47-3.06-30.99,0-61.98,0-92.97,0-4.06,0-7.95,.74-11.57,2.64-6.48,3.4-7.76,7.49-4.3,13.87,19.43,35.84,38.88,71.68,58.27,107.54,1.25,2.3,3.07,4.39,3.29,7.17-1.21-.86-2.5-1.62-3.63-2.59-45.39-38.92-90.78-77.83-136.09-116.84-2.95-2.54-4.7-3.21-8.15-.24-46.66,40.24-93.49,80.28-140.28,120.37,.15-2.63,1.89-4.58,3.05-6.74,19.47-35.99,38.99-71.94,58.5-107.9,4.08-7.52,2.29-12.34-5.79-15.51-3.46-1.36-7.06-1.8-10.76-1.79-16.82,.04-33.64,.03-50.47,0-1.59,0-3.27,.45-5.41-.78,6.33-5.45,12.44-10.71,18.55-15.96,43.47-37.29,86.94-74.58,130.39-111.89,1.58-1.35,3.81-2.33,3.6-4.99,2.2,2.39-.25,4.03-1.13,5.67-20,37.04-40.09,74.02-60.16,111.02-3.75,6.91-2.22,11.48,4.97,14.76,3.86,1.76,7.98,2.19,12.19,2.19,31.15-.02,62.31-.02,93.46,0,3.69,0,7.3-.36,10.79-1.67,8.39-3.17,10.27-8.05,6.05-15.83-19.91-36.71-39.79-73.43-59.82-110.07-1.79-3.27-1.97-5.67-.1-9.08,20.29-37.07,40.38-74.25,60.51-111.4,3.23-5.96,2.1-9.91-3.74-13.35-4.17-2.46-8.78-2.94-13.49-2.94-31.32,0-62.64,0-93.96,0-4.19,0-8.31,.38-12.16,2.24-6.87,3.31-8.41,7.77-4.8,14.44,12.26,22.69,24.61,45.33,36.85,68.02,8.28,15.35,16.44,30.75,24.66,46.13Zm294.14,2.22c1.09,.72,2.28,1.32,3.27,2.16,45.03,38.59,90.07,77.18,135,115.89,3.02,2.6,4.74,3.12,8.08,.23,44.9-38.74,89.95-77.31,134.97-115.92,1.5-1.29,3.19-2.44,3.57-4.59,1.88,2.3-.52,3.71-1.32,5.21-20.14,37.33-40.4,74.61-60.62,111.9-3.31,6.1-2.08,10.21,4.04,13.58,4.05,2.23,8.47,2.82,13.03,2.82,31.49-.02,62.97-.01,94.46,0,3.02,0,5.99-.32,8.88-1.2,9.52-2.91,11.75-8.15,7.08-16.76-19.9-36.71-39.76-73.44-59.8-110.07-1.72-3.15-1.64-5.34,.06-8.46,20.35-37.22,40.53-74.54,60.73-111.84,3.13-5.78,2-9.58-3.63-12.93-3.84-2.29-8.06-3.05-12.46-3.05-32.15-.01-64.3-.02-96.45,0-2.83,0-5.63,.29-8.37,1.19-9.23,3.04-11.34,8.14-6.79,16.54,20.44,37.74,40.86,75.49,61.29,113.23-2.19,.22-3.13-1.67-4.43-2.78-45-38.54-89.97-77.1-134.87-115.75-2.52-2.17-4.01-2.25-6.59-.02-25.55,22.1-51.21,44.07-76.88,66.03-20.73,17.74-41.52,35.41-62.28,53.12,.06-2.12,1.43-3.7,2.36-5.42,19.72-36.42,39.48-72.82,59.22-109.24,3.86-7.12,2.19-11.64-5.29-14.96-3.76-1.67-7.71-1.95-11.72-1.95-31.31,0-62.63,0-93.94,0-4.02,0-7.96,.38-11.7,2.08-7.29,3.32-8.85,7.77-5.08,14.72,7.37,13.6,14.74,27.2,22.11,40.8,12.84,23.69,25.71,47.37,38.47,71.1,.76,1.41,3.31,3.12,.32,4.94,1.13-2.43-1-3.27-2.27-4.35-45.24-38.82-90.54-77.59-135.73-116.48-2.81-2.42-4.43-2.55-7.34-.04-45.18,38.9-90.46,77.67-135.79,116.39-2.73,2.33-2.78,3.59-.01,5.95,45.46,38.82,90.86,77.71,136.18,116.7,2.57,2.21,4,2.18,6.53,0,35.07-30.22,70.2-60.38,105.41-90.44,10.99-9.38,21.55-19.27,33.2-27.92,.38,2.05-1.14,3.4-1.97,4.94-19.63,36.28-39.31,72.52-58.97,108.78-3.87,7.13-2.51,11.55,4.64,14.87,3.52,1.64,7.29,2.28,11.16,2.28,31.98,0,63.95,0,95.93,0,4.05,0,7.98-.65,11.61-2.49,6.62-3.35,7.95-7.71,4.44-14.19-12.69-23.39-25.43-46.75-38.07-70.17-7.97-14.77-15.78-29.61-23.67-44.42Zm431.25,262.45c-2.13-.37-3.31-2.12-4.79-3.39-45.24-38.77-90.48-77.56-135.66-116.39-2.4-2.06-3.99-3-6.99-.4-45.88,39.56-91.89,78.97-137.85,118.43-1.35,1.16-3.09,2.09-3.09,4.26-1.08,1.65-2.29,3.24-3.24,4.97-19.6,36.08-39.17,72.18-58.75,108.28-4.7,8.67-2.57,13.98,6.88,16.83,2.05,.62,4.24,1.1,6.36,1.11,32.13,.08,64.26,.09,96.39,.03,4.21,0,8.23-1.14,11.76-3.6,4.8-3.35,5.71-6.8,2.98-11.91-4.77-8.95-9.62-17.85-14.44-26.78-16.03-29.69-32.06-59.39-48.1-89.08,2.08,.48,3.32,2.15,4.81,3.43,45.24,38.79,90.49,77.58,135.65,116.47,2.89,2.49,4.69,2.79,7.82,.08,35.77-30.91,71.65-61.7,107.61-92.4,10.87-9.28,21.34-19.06,32.81-27.59-.85,1.8-1.61,3.65-2.56,5.39-19.8,36.54-39.63,73.07-59.44,109.61-3.4,6.28-2.04,10.5,4.36,13.84,4.26,2.22,8.85,2.66,13.56,2.66,29.63-.03,59.27-.02,88.9,0,3.35,0,6.66-.17,9.88-1.1,9.73-2.82,12.01-8.21,7.21-17.06-15.13-27.92-30.18-55.88-45.44-83.73-5.42-9.89-10.12-20.19-16.58-29.5-.07-.87-.14-1.73-.22-2.61,1.46-.42,1.97-1.7,2.6-2.86,20.37-37.57,40.76-75.14,61.08-112.73,2.64-4.88,1.65-8.38-2.93-11.61-3.96-2.79-8.49-3.79-13.22-3.8-31.14-.04-62.28-.02-93.41-.02-3.54,0-6.98,.62-10.22,2.02-7.59,3.27-9.15,7.78-5.25,15,11.23,20.77,22.53,41.51,33.73,62.3,9.31,17.26,18.52,34.58,27.78,51.87ZM302.91,268.81c2.12,.39,3.31,2.14,4.79,3.41,45.12,38.67,90.25,77.34,135.29,116.1,2.73,2.35,4.37,2.62,7.31,.08,45.64-39.34,91.41-78.54,137.15-117.76,1.5-1.28,3.28-2.34,3.57-4.58,.34,0,.68,0,1.02,0-.4,2.35,1.61,3.12,2.92,4.24,45.75,39.27,91.56,78.47,137.23,117.83,3,2.58,4.61,2.73,7.69,.07,41.37-35.68,82.89-71.18,124.32-106.79,5.54-4.76,11.53-9.03,16.33-14.62,.67-1.28,1.33-2.57,2.02-3.85,20.38-37.59,40.78-75.16,61.13-112.76,2.7-4.99,1.66-8.77-3.2-11.94-4.03-2.63-8.58-3.5-13.34-3.5-30.98,0-61.97,0-92.95,.01-3.69,0-7.29,.56-10.68,2.15-7.21,3.39-8.66,7.75-4.86,14.77,16.02,29.54,32.11,59.05,48.02,88.65,4.72,8.77,10.06,17.22,13.85,26.48-46.88-40.17-93.77-80.32-140.59-120.57-2.62-2.25-4.24-3.13-7.38-.41-33.23,28.74-66.6,57.31-99.97,85.88-13.52,11.57-27.14,23.01-40.71,34.5,.89-1.95,1.68-3.95,2.7-5.84,19.65-36.29,39.34-72.57,59.01-108.85,3.74-6.89,2.13-11.36-5.09-14.7-4.06-1.87-8.35-2.08-12.7-2.08-29.66,0-59.32,0-88.98,.01-1.83,0-3.67,.05-5.49,.22-12.95,1.17-16.73,8.09-10.65,19.32,20.19,37.31,40.36,74.64,60.54,111.95-2.12-.41-3.32-2.14-4.8-3.41-45.39-38.91-90.78-77.81-136.08-116.82-2.77-2.38-4.4-2.63-7.28-.04-9.53,8.57-19.38,16.8-29.11,25.14-36.03,30.89-72.07,61.77-108.1,92.66-1.59,1.36-3.75,2.47-2.75,5.22-1.92-.07-2.41,1.49-3.11,2.78-20.31,37.45-40.63,74.9-60.9,112.38-2.69,4.97-1.6,8.76,3.17,11.94,4.34,2.89,9.24,3.57,14.31,3.57,30.32,0,60.64,0,90.96,0,3.18,0,6.32-.28,9.36-1.28,9.25-3.06,11.32-8.14,6.74-16.6-16.26-29.99-32.58-59.96-48.77-89.99-4.09-7.59-8.77-14.88-11.94-22.96Zm288.67-.31c-.86,1.16-1.33,1.64-1.64,2.21-20.53,37.87-41.07,75.73-61.56,113.62-2.54,4.7-1.72,7.96,2.62,11.28,4.31,3.3,9.4,4.05,14.65,4.02,17.65-.1,35.29-.33,52.94-.35,12.82-.01,25.63,.24,38.45,.35,4.55,.04,8.98-.61,13-2.88,5.73-3.23,6.99-7.5,3.88-13.25-9.18-16.97-18.41-33.91-27.61-50.87-11.49-21.19-22.96-42.39-34.74-64.14Zm289.16-.36c-21.45,39.57-42.39,78.14-63.24,116.76-2.26,4.19-1.08,7.88,2.99,10.81,4.38,3.16,9.44,3.97,14.68,3.93,13.48-.1,26.96-.36,40.44-.35,16.64,.01,33.29,.23,49.93,.36,3.68,.03,7.32-.24,10.82-1.51,8.65-3.14,10.53-8.06,6.19-16.08-13.86-25.58-27.72-51.17-41.59-76.75-6.56-12.1-13.15-24.18-20.21-37.17Zm-289.38,527.46c4.62-8.51,8.74-16.1,12.86-23.7,16.58-30.56,33.17-61.12,49.74-91.69,3.05-5.63,1.95-9.67-3.54-12.97-3.64-2.19-7.69-3.15-11.92-3.16-31.32-.02-62.63,0-93.95-.02-2.87,0-5.64,.52-8.33,1.41-8.97,2.97-11.04,8.06-6.61,16.25,14.35,26.48,28.71,52.94,43.07,79.41,6.1,11.24,12.19,22.48,18.69,34.48ZM302.07,134.74c-15.16,0-30.31,0-45.47,0-5.24,0-10.33,.63-14.73,3.78-4.49,3.22-5.44,6.89-2.86,11.66,20.27,37.45,40.59,74.88,60.92,112.29,.51,.94,.67,2.53,2.1,2.43,1.32-.1,1.51-1.61,2.04-2.59,20.24-37.28,40.47-74.56,60.66-111.87,2.84-5.26,1.75-9.03-3.32-12.35-4.37-2.86-9.31-3.37-14.37-3.36-14.99,.02-29.98,0-44.97,0Z"/>
  </g>
</svg>